<svg width="65" height="69" viewBox="0 0 65 69" fill="none" xmlns="http://www.w3.org/2000/svg">
<path fill-rule="evenodd" clip-rule="evenodd" d="M32.1178 0C49.8559 0 64.2351 14.3798 64.2351 32.1178C64.2351 49.8559 49.8559 64.2357 32.1178 64.2357C14.3798 64.2357 0 49.8559 0 32.1178C0 14.3798 14.3798 0 32.1178 0Z" fill="#72BD0D"/>
<path fill-rule="evenodd" clip-rule="evenodd" d="M32.1178 65.9944L60.3083 66.1822C60.3083 66.1822 49.2894 58.8265 47.8666 50.792C46.4433 42.7581 46.3847 30.9244 46.3847 30.9244L32.1172 30.5146V65.9932L32.1178 65.9944Z" fill="#1A1A1A"/>
<path fill-rule="evenodd" clip-rule="evenodd" d="M32.1183 65.9944L3.92773 66.1822C3.92773 66.1822 14.9461 58.8265 16.3695 50.792C17.7928 42.7581 17.8507 30.9244 17.8507 30.9244L32.1183 30.5146V65.9932V65.9944Z" fill="#1A1A1A"/>
<path d="M32.425 68.1679V67.966H31.5078V68.1679H32.425ZM32.425 65.2145H31.5078V63.3801H32.425V65.2145ZM32.425 60.6292H31.5078V58.7948H32.425V60.6292ZM32.425 56.0439H31.5078V54.2095H32.425V56.0439ZM32.425 51.4586H31.5078V49.6242H32.425V51.4586ZM32.425 46.8733H31.5078V45.0389H32.425V46.8733ZM32.425 42.288H31.5078V40.4536H32.425V42.288ZM32.425 37.7027H31.5078V35.8683H32.425V37.7027Z" fill="white"/>
<path fill-rule="evenodd" clip-rule="evenodd" d="M23.5613 15.4842C22.7356 16.1086 22.1959 16.0714 22.0422 16.1465C21.7891 16.2696 21.8977 16.3544 21.7446 16.4971C21.5617 16.6679 21.4665 16.5636 21.2159 16.7063C20.8494 16.9148 20.7988 17.049 20.2499 17.1521C19.7907 17.2387 18.6266 18.2802 18.2875 18.5852L17.3837 19.7902C17.324 19.9079 17.2612 20.1445 17.2026 20.2726C16.9197 20.894 16.9709 20.3927 16.5147 21.6892C16.4208 21.9551 16.3732 21.9124 16.2988 22.1203C16.2281 22.3185 16.2452 22.5332 16.1842 22.7387C15.936 23.5748 15.8354 25.5555 16.0714 26.5434L16.1988 27.077C16.6086 28.4308 16.2013 27.71 16.9404 28.9565C17.2868 28.9754 17.3728 28.998 17.6313 29.0882C17.624 29.8103 17.563 29.3444 17.3563 29.6157C16.9148 29.8402 16.7513 30.0036 16.4251 30.3164C16.2708 30.464 16.2116 30.5909 16.0616 30.7433C15.8964 30.9116 15.8055 30.8927 15.7262 31.1171C15.4103 31.3275 15.5244 31.369 15.3414 31.6574L13.7162 34.7749C13.5997 35.0591 13.4979 35.292 13.4101 35.6439C13.0613 37.0428 13.0161 38.3729 13.2393 39.784C13.3833 40.6914 13.8016 42.5331 14.2657 43.3369C15.2347 45.0164 14.5444 44.4047 16.2495 45.9738L16.5788 46.2421C16.5903 46.25 16.6068 46.261 16.6184 46.2689L18.5894 47.6642C18.8156 47.7923 18.8296 47.7374 19.101 47.7777C19.3273 47.8112 19.2919 47.8191 19.4565 47.9204C19.7005 48.0698 19.656 48.0118 19.9029 48.0826C20.2914 48.1948 19.8816 48.1338 20.2713 48.296C20.4536 48.3716 20.5567 48.3277 20.7707 48.3985L22.4203 49.0607C23.0076 49.204 23.1777 49.229 23.7223 49.4669C23.7772 49.4907 23.8205 49.512 23.9004 49.5498C23.9187 49.5584 23.9699 49.5852 23.9888 49.5931L24.1339 49.6504C25.0304 49.9535 24.8133 50.0487 25.864 50.2255C26.1055 50.2664 26.5885 50.3621 26.7373 50.4688C27.0312 50.6798 26.6806 50.6981 27.699 50.6963C27.9765 50.2804 28.0143 50.0822 28.0399 49.3711C28.0606 48.79 27.7429 48.815 27.3197 48.4015C27.685 48.2899 27.8655 48.2991 28.3192 48.3003C28.1411 48.2021 28.0222 48.0935 27.8228 48.0899C27.6392 47.9216 26.9763 47.8563 26.672 47.627C26.3616 47.3935 26.4153 47.5404 26.1226 47.3855C25.95 47.2947 25.8817 47.1568 25.6609 47.0623C25.406 46.9532 25.3115 46.9794 25.1078 46.816C24.5645 46.3805 24.8944 46.7964 24.3535 46.3842L24.1272 46.2153C23.5089 45.7841 24.0083 45.9738 23.3131 45.517C22.9728 45.2932 22.2404 44.5029 21.9361 44.1809L21.7434 43.9778C21.6202 43.8546 21.655 43.9016 21.5318 43.7949C21.4763 43.7467 21.3726 43.6387 21.336 43.5918C20.9165 43.0503 20.7854 42.738 20.4987 42.1184C20.4292 41.9678 20.378 41.694 20.3164 41.5013C20.1822 41.0823 20.1316 40.6841 20.0115 40.2908C19.8115 39.6358 20.1914 38.0966 20.4737 37.7307L21.233 36.9056C21.8812 36.2537 22.7039 36.1897 23.4717 36.0336C24.0272 35.9208 23.9491 35.7073 24.6334 35.6591C24.5821 35.5183 24.6364 35.5774 24.5651 35.5006C24.6425 35.2499 24.6468 35.3414 24.6962 35.0017C24.8163 34.1846 24.7041 34.1254 24.8621 33.5199C25.0414 32.8344 24.7767 32.9399 24.9737 32.385L25.0353 32.1563C25.0859 31.7886 25.0468 31.2184 25.0785 30.8519L25.1231 30.7201C25.4524 30.7147 25.5298 30.8506 25.7762 30.9263C25.2975 30.0512 22.8045 30.6976 21.8782 30.4335C21.8635 30.4293 21.8471 30.4219 21.8318 30.4171C21.8172 30.4122 21.8007 30.4049 21.7849 30.4L20.8768 30.1884C20.861 30.1829 20.8439 30.1762 20.828 30.1707C20.3396 29.9963 20.253 29.9121 19.8993 29.3944L19.8194 29.2736C19.4925 28.8248 19.5901 28.9187 19.6645 28.1296C19.892 25.7342 19.7846 27.1276 20.2536 25.8915C20.5195 25.1908 20.4902 25.6195 20.6616 25.1725C20.8902 24.5761 20.6427 24.8883 21.1275 24.5328C21.3086 24.4005 21.2671 24.3554 21.3836 24.2566C21.7513 23.9449 22.2239 24.2169 22.5911 23.2119C23.2003 21.5453 22.8948 22.6076 23.3808 21.6959C23.59 21.3032 23.679 21.4599 23.8717 21.072C24.1345 20.5421 24.4773 20.2293 24.9017 19.8554L25.1231 19.6121C25.2737 19.4139 25.2072 19.4566 25.5152 19.3377C26.3293 19.0248 26.2275 18.9175 26.4476 18.5614C26.5184 18.4467 26.583 18.3681 26.7147 18.2967C26.9495 18.1699 26.9605 18.2418 27.2221 18.1784C27.5203 18.1064 27.9039 17.6814 28.1807 17.5119C28.7034 17.1923 30.073 16.7197 30.7006 16.6453C31.9605 16.4959 32.1294 16.2898 32.5142 16.2495C33.2082 16.1769 34.0363 16.2885 34.5065 15.9946C34.3553 15.7623 33.868 15.6135 33.6021 15.5537C33.3234 15.4909 32.7075 15.3781 32.4544 15.3525C31.647 15.1823 29.5022 15.1848 28.5838 15.4287C27.9588 15.5952 27.4654 15.4824 26.4092 15.8226C26.3409 15.8446 26.2159 15.883 26.1207 15.9178C25.1481 16.2782 25.0694 15.9696 23.9699 16.7435L22.9667 17.4533C22.8454 17.5472 22.0556 18.1406 21.991 18.1662C21.4214 18.2924 21.5458 18.7108 20.9726 18.8126C20.9744 18.7041 20.9653 18.5931 20.9866 18.4858C21.0348 18.243 21.5153 17.7241 21.8483 17.5716L23.0246 16.7886C23.2576 16.5361 23.0978 16.6032 23.557 16.3257C24.1364 15.9763 24.4754 15.5574 25.4914 15.3323L25.1889 15.2579C24.859 15.2537 24.5706 15.2628 24.2815 15.3397C23.9674 15.4232 24.3047 15.3854 23.9309 15.4549C23.8302 15.4738 23.6698 15.475 23.5625 15.4824L23.5613 15.4842Z" fill="url(#paint0_linear_431_490)"/>
<path fill-rule="evenodd" clip-rule="evenodd" d="M33.5148 25.1567C33.4416 24.806 33.4575 23.8834 33.5112 23.5205C33.5404 23.3229 33.5929 23.0735 33.6758 22.8906C33.7423 22.7442 33.7575 22.7527 33.8063 22.6235C33.9899 22.1411 34.0167 21.9709 34.7192 21.4239C35.3364 20.9434 37.3141 20.8739 38.0745 21.3117C38.9667 21.8252 39.6662 22.238 39.9583 23.6102C40.3803 25.5878 39.7021 26.2483 38.6703 27.0917C37.5952 27.9698 35.662 27.7155 34.7802 27.1813C34.6229 27.0862 34.454 26.9557 34.3216 26.841C34.1942 26.73 33.5904 25.5177 33.5148 25.1573V25.1567ZM22.7581 27.3179C25.2462 27.3954 24.8681 26.8636 26.0944 27.8796C26.5859 28.2869 26.4713 27.8893 27.183 28.3784C27.3995 28.5272 27.5013 28.6065 27.7538 28.6888C27.8861 28.7321 27.9282 28.7315 28.0453 28.7876C28.8063 29.1504 28.5441 28.823 28.9015 29.0956L29.1838 29.2419C29.7924 29.4401 29.6266 29.5048 30.2065 29.509C31.0359 29.5151 30.5309 29.7334 31.5914 29.7664C33.0209 29.8109 33.6868 29.9475 35.1425 29.6731C35.5327 29.5993 36.4359 29.3407 36.7774 29.1565L37.6635 28.5931C37.9586 28.365 37.7172 28.5382 38.0928 28.3693L39.2868 27.3765C39.4716 27.1783 39.4375 27.1911 39.6735 27.0386C39.8631 26.916 39.9107 26.7959 40.0058 26.6526C40.4199 26.0324 41.3395 24.3755 41.4432 23.8169C41.5017 23.5016 40.9486 21.9502 40.7187 21.7026C40.512 21.4794 40.3077 21.1928 40.09 20.9361C39.174 19.8579 38.7276 19.6511 37.2811 19.3737C36.1084 19.1493 36.2438 19.0718 34.7558 19.0621C33.9423 19.0566 32.4171 19.2749 31.5817 19.4481C31.1792 19.5316 31.3896 19.5652 31.0572 19.656C30.8773 19.7054 30.6236 19.7066 30.434 19.7756C30.0266 19.9231 28.8484 20.5275 28.5331 20.7824C28.3959 20.8934 28.2929 20.9934 28.1453 21.1172C27.8324 21.38 27.7001 21.4995 27.4434 21.8057C27.3348 21.9356 27.2104 22.0655 27.0994 22.185C27.0336 22.2557 26.9872 22.2887 26.9305 22.3515L26.5701 22.8491C26.5609 22.8613 26.5506 22.8777 26.542 22.8906C26.5414 22.8912 26.4737 23.0015 26.4658 23.0144C26.317 23.2376 26.3207 23.1943 26.1969 23.4864L25.4511 24.8536C25.323 25.2506 25.4931 25.0414 25.1766 25.5506C25.001 25.8336 24.9199 25.8092 24.551 26.0995C24.2973 26.2995 24.4461 26.2428 24.0655 26.3141C23.8387 26.3568 23.3508 26.5959 23.2075 26.7477L22.9465 26.9971C22.7282 27.2191 22.8575 27.0264 22.7568 27.3185L22.7581 27.3179Z" fill="#F4F4F2"/>
<path fill-rule="evenodd" clip-rule="evenodd" d="M41.6102 20.9988C41.6181 21.0196 41.6382 21.1031 41.6846 21.1854C42.0224 21.7837 42.27 22.9247 42.2816 23.6363C42.3066 25.1353 42.1877 24.4809 43.1402 25.0249C43.3811 25.1621 43.5939 25.3591 43.8043 25.4164C44.1251 25.4451 43.933 25.4128 44.1458 25.5372L44.7471 25.9311C45.0142 26.1763 45.4484 26.9014 45.6546 27.0008C46.0162 27.1361 46.5961 27.0587 47.0352 27.03C47.3523 27.0093 48.8226 26.5001 49.1464 26.347C49.5575 26.1531 49.9118 25.8817 50.2399 25.5939L50.5844 25.2756C50.5942 25.264 50.6045 25.2475 50.6137 25.2359C50.7058 25.117 50.6039 25.2347 50.696 25.12L50.8198 24.9853C50.8296 24.9761 50.8436 24.9621 50.8527 24.9536C51.5516 24.2882 51.8388 23.3851 51.679 22.4203L51.5644 22.102C51.5168 22.2721 51.4754 22.3093 51.4504 22.4612C51.3717 22.9424 51.554 22.6167 51.2491 23.6376C51.1845 23.8534 51.0643 24.0541 50.9698 24.2937L50.6064 24.9023C50.5978 24.9109 50.5112 24.9786 50.4972 24.9908L50.0685 25.2823C49.1263 25.8646 48.5933 25.5786 47.7548 25.5329C47.4706 25.5177 47.1938 25.4768 46.9157 25.4268C46.7943 25.4048 46.7138 25.3768 46.6181 25.3085C46.6083 25.3012 46.5937 25.2878 46.5839 25.2798L46.5095 25.2213C46.3272 25.0987 45.6844 24.9292 45.3563 24.1834C45.0526 23.493 44.963 22.3465 45.0844 21.6715C45.171 21.1873 45.2887 21.2543 45.3149 20.8671C45.4228 20.7768 45.3661 20.8543 45.5411 20.8342C45.7149 20.8232 45.7991 20.6427 45.8924 20.5232C46.0046 20.3786 46.1723 20.2646 46.2046 20.0951C46.2766 19.6566 46.5053 19.7036 46.9346 19.4389C47.2322 19.2547 46.8352 19.4005 47.2407 19.2663C47.5664 19.1584 48.4829 19.0535 48.947 19.112C50.0148 19.2474 49.916 19.6304 50.6545 20.228L51.0656 20.6348C51.0863 20.6531 51.1064 20.6677 51.1241 20.6829C51.143 20.6994 51.1643 20.7183 51.1857 20.7342C51.1814 20.1725 51.0436 19.7523 50.5862 19.3602C50.2142 19.0413 49.6282 18.6943 49.1934 18.4314C48.9556 18.2875 47.8755 17.8728 47.431 17.8582C47.1584 17.8491 46.7626 17.8277 46.4998 17.8515C46.1735 17.8808 46.0778 17.9826 45.7338 18.0326C45.4314 18.0765 45.146 18.0357 44.849 18.0716L42.9243 18.9278C42.6725 19.0742 42.8725 19.0077 42.6505 19.1096C42.2877 19.2761 42.1505 19.2779 41.7742 19.6353C40.8515 20.5104 41.5339 20.3616 41.6108 20.9988H41.6102Z" fill="#F4F4F2"/>
<path fill-rule="evenodd" clip-rule="evenodd" d="M35.9322 24.8151C36.3438 24.7639 36.5274 24.7633 36.731 25.028C36.8988 25.2457 36.9628 25.4786 36.6725 25.6768C36.1054 26.0647 35.4742 25.5067 35.9322 24.8145V24.8151ZM38.4605 22.7021C38.6654 24.1785 37.3976 24.1955 36.9079 23.4692C36.7987 23.307 36.7872 23.0204 36.8634 22.8283C36.9347 22.6478 37.0915 22.6033 37.3195 22.4911C37.8733 22.2179 38.0843 22.4142 38.4611 22.7027L38.4605 22.7021ZM33.7051 24.298C33.7069 25.2615 34.0832 25.9397 34.4838 26.5544C34.9753 27.3106 37.447 27.7819 38.5221 26.8776C38.5929 26.8178 38.6691 26.7526 38.7319 26.6867C39.618 25.7604 39.8259 25.6354 39.8613 24.362C39.8704 24.0254 39.6668 23.4241 39.5137 23.171C39.3503 22.9009 39.1661 22.413 38.9551 22.2106C38.5227 21.7965 37.4866 21.3281 36.8036 21.3208C35.7596 21.3098 35.1864 21.2245 34.4814 22.0429C34.0027 22.5984 33.7039 23.2863 33.7057 24.298H33.7051Z" fill="#13121B"/>
<path fill-rule="evenodd" clip-rule="evenodd" d="M25.0779 30.8525C25.0462 31.219 25.0852 31.7892 25.0346 32.1569L24.973 32.3856C24.7761 32.9405 25.0407 32.835 24.8614 33.5205C24.7029 34.126 24.8157 34.1852 24.6956 35.0023C24.6456 35.3414 24.6419 35.2505 24.5645 35.5012C24.6358 35.578 24.5815 35.5189 24.6328 35.6597C25.0023 35.6451 25.9055 35.9726 26.261 36.0958C26.6208 36.2208 26.8373 36.1696 27.2355 36.1939C27.6282 36.2183 27.6862 36.3616 28.0911 36.4208C28.6546 36.7428 29.0119 36.5855 29.7065 36.7513C30.0163 36.8251 30.1237 36.8776 30.5024 36.944L32.0794 37.274C32.394 37.3374 32.5087 37.416 32.8404 37.4313C34.5876 37.51 38.4496 37.4941 40.0797 36.9855C41.128 36.6586 42.0397 36.5611 43.102 36.1336L43.4655 36.0305C43.6167 36 43.7088 35.9927 43.8576 35.9567L45.5102 35.2432C45.7072 35.1469 45.5834 35.1707 45.8091 35.0847L47.1391 34.498C47.3544 34.3748 47.5032 34.2547 47.7483 34.1211C48.2282 33.8595 49.0332 33.3003 49.4077 32.9442C49.7839 32.5856 50.0425 32.3435 50.3761 31.9977C50.5511 31.816 50.684 31.6715 50.8536 31.4867C51.0304 31.2946 51.5097 31.2086 51.6018 30.9665C51.6579 30.4914 52.1574 30.1579 52.2415 29.6487C52.3562 28.9535 51.6299 28.0387 50.8694 27.707C50.4047 27.5045 49.8784 29.3596 48.6868 28.6937C48.1557 28.3967 47.3708 29.6511 46.6433 29.1523C46.4927 29.0492 46.7037 31.0732 46.9824 31.0513C47.4312 31.0159 46.9354 30.5701 46.5134 30.2469C46.1457 29.9652 45.8255 28.7571 45.4127 28.4278C45.3309 27.9283 44.7016 27.4746 44.3058 26.8935C43.8356 26.2031 43.2716 26.1714 42.9111 25.6903C42.4739 25.6896 42.5209 25.3945 41.7641 25.503C41.5537 25.8439 40.889 26.7941 40.8268 27.2118C40.7328 27.846 40.9225 28.4821 40.3913 29.3584C40.2492 29.5932 39.4217 30.575 39.1814 30.7555L38.9985 30.9256C38.6887 31.2598 38.0618 31.5727 37.6355 31.7782C37.3672 31.9069 37.4355 31.841 37.2745 32.1044C37.1757 32.2654 37.1263 32.377 37.0062 32.4862C36.8537 32.6252 36.7568 32.6155 36.5915 32.7246C36.1445 33.0198 36.8074 32.749 35.8188 33.2735C35.6481 33.3643 35.5834 33.465 35.4414 33.5528C35.0901 33.7699 35.3468 33.4613 34.5669 33.9388C34.1058 34.2212 33.5125 34.2279 33.0697 34.42C32.5374 34.6505 31.847 34.5242 31.2811 34.6041C30.85 34.6651 30.5054 34.6926 30.4048 34.3297C30.6127 34.0565 30.692 34.1449 31.3915 34.0065C31.4372 33.8638 31.472 34.0278 31.3677 33.9193C31.2537 33.8004 31.3256 33.9266 31.325 33.9254L31.6305 33.9236C31.8989 33.9169 33.982 33.4826 34.2699 32.9442C33.904 32.6716 32.6325 32.7527 31.983 32.7429C31.6988 32.7387 30.048 32.5825 29.8395 32.5112C28.9613 32.2118 28.5783 32.2563 27.8569 32.052L26.308 31.2745C26.1756 31.219 26.2043 31.2165 26.1195 31.1568C26.0238 31.0897 26.1073 31.1415 26.0085 31.0702C25.9341 31.0165 25.8481 30.9702 25.775 30.9275C25.5286 30.8518 25.4511 30.7159 25.1218 30.7213L25.0773 30.8531L25.0779 30.8525Z" fill="#50934B"/>
<path fill-rule="evenodd" clip-rule="evenodd" d="M50.107 26.1196C49.7991 26.1623 49.6369 26.3806 49.3521 26.4983L47.1573 27.2697C46.8182 27.335 45.7803 27.4289 45.5388 27.241C45.2772 27.038 45.1985 26.741 44.9326 26.458L44.4558 26.0232C44.4454 26.0147 44.4295 26.0025 44.4186 25.9939C44.4076 25.9848 44.3917 25.9732 44.3808 25.9647C44.3698 25.9555 44.3539 25.9439 44.3423 25.9354L43.9685 25.6512C43.7837 25.4719 43.8923 25.6098 43.8051 25.4152C43.5953 25.3579 43.3819 25.1615 43.141 25.0237C42.1884 24.4797 42.3067 25.1341 42.2823 23.6351C42.2707 22.9235 42.0238 21.7825 41.6853 21.1842C41.6384 21.1019 41.6188 21.0177 41.6109 20.9976C41.2981 20.8592 40.9377 20.475 41.0517 20.0743C41.2255 19.7584 41.5176 19.5779 41.825 19.3474C42.1713 19.0882 42.8281 18.6784 43.2148 18.5406C43.3678 18.4863 43.3166 18.515 43.4373 18.4485L43.6752 18.2991C44.7686 17.6692 46.209 17.6948 47.4939 17.71C48.0958 17.7167 48.5294 17.8771 48.9709 18.1229C48.9831 18.1302 48.9984 18.1412 49.0106 18.1485L49.1325 18.2138C49.146 18.2199 49.1642 18.2253 49.1783 18.2308C49.3271 18.2888 49.2813 18.2436 49.4307 18.3266L50.5784 19.034C50.8657 19.2578 51.0785 19.4956 51.2584 19.8103C51.5688 20.3542 51.7048 21.4227 51.8079 22.1782C51.9615 23.3052 52.0524 23.3418 51.5243 24.5651C51.256 25.1871 50.1967 25.8988 50.1083 26.1196H50.107ZM21.3372 28.7815C21.0676 28.2741 21.0707 28.218 21.2152 27.5746C21.2884 27.2484 21.1859 27.1892 21.3305 26.902C21.4457 26.6733 21.3866 26.9691 21.4433 26.6038C21.5512 25.9061 21.6262 26.1214 22.1556 25.6183C22.794 25.0115 22.7733 25.3725 23.0111 24.8664C23.7405 24.8713 23.7795 24.9243 24.0533 24.4023C24.1021 24.3096 24.0924 24.337 24.1473 24.2419L24.196 24.159C24.2052 24.1407 24.2302 24.0846 24.2375 24.0644L24.4991 23.4735C24.6162 23.1558 24.5412 23.1345 24.7918 22.7003C24.8016 22.6832 24.8321 22.635 24.8418 22.6179L25.6426 21.3062C25.7468 21.133 25.7127 21.1745 25.9036 21.0647C26.2194 20.8824 26.0054 21.0531 26.2225 20.7738C26.3481 20.6122 26.3292 20.6665 26.4433 20.4604C26.5896 20.1951 26.6061 19.9213 26.6787 19.6017L26.8951 19.4072C26.9945 19.2718 27.0049 19.2273 27.1147 19.095C27.3196 18.848 27.4592 18.7858 27.705 18.6272L28.3051 18.2375C28.4612 18.1479 28.4228 18.1229 28.6173 18.0271C29.5272 17.5807 30.4492 17.5301 30.8493 17.399C30.8645 17.3941 30.881 17.3862 30.8962 17.3813C31.6183 17.1429 31.8689 17.2478 32.3763 17.1429L33.7124 16.9679C34.8308 16.7636 36.2847 16.8599 37.3635 17.2624C37.969 17.4881 38.8014 17.8418 38.849 18.5546C38.2398 18.554 37.2805 18.1955 36.0804 18.1631C34.8375 18.1302 33.0861 18.0253 31.8494 18.4248C31.3042 18.601 29.9906 18.8144 29.4961 19.1084C29.2509 19.2541 29.2149 19.2377 28.9368 19.3541C28.6191 19.4871 28.7752 19.5554 28.4154 19.659C28.252 19.9353 28.3557 19.6194 27.9337 20.0426C27.7306 20.2457 27.6233 20.2402 27.4275 20.461C26.8939 21.0635 26.1036 21.8715 25.7273 22.585C25.634 22.7625 25.0846 23.6455 25.0205 23.7022L24.5345 24.6804C24.4918 24.7901 24.4351 25.5774 23.6057 25.6665C23.4295 25.6854 23.2545 25.6915 23.124 25.7281C22.7556 25.8317 22.2336 26.258 22.0324 26.5458C21.6768 27.0538 21.6073 27.402 21.7262 28.1893C22.3727 28.5863 22.4971 28.4759 23.4081 28.4827C24.4875 28.49 24.7711 28.1308 25.2327 28.2662L26.539 29.0827C27.2787 29.448 27.0403 29.4303 27.9776 29.7511C28.1825 29.8895 28.4203 30.02 28.7283 30.067C29.318 30.414 32.4757 30.8524 33.3063 30.8518C33.9728 30.8512 34.4778 30.825 35.0815 30.7469C35.5004 30.6927 36.7805 30.3134 37.1689 30.1286C37.4202 30.0091 37.5141 29.9298 37.7611 29.7993C38.2087 29.5627 38.9819 28.8315 39.6808 28.3576C39.8327 28.2546 39.6497 28.3418 39.8577 28.2357C39.8747 28.7144 39.8485 28.5577 39.6918 28.8266C39.3527 29.4072 39.1076 29.6322 38.6356 30.1505L37.7135 30.8134C36.9549 31.2562 34.9126 31.7489 34.0124 31.8831C33.0264 32.03 31.925 31.8733 31.0151 31.7599C30.062 31.6416 29.2027 31.483 28.4191 31.1781C28.0922 31.0513 26.4689 30.3932 26.2359 30.178C26.1292 30.0792 25.4212 29.5645 25.2956 29.5255C24.1149 29.1547 22.3184 29.6493 21.7433 29.1285C21.5396 28.9443 21.5116 28.8431 21.3384 28.7796L21.3372 28.7815ZM26.3817 13.2443C26.9281 13.3315 26.8329 13.1381 27.3623 13.1272C27.7989 13.118 28.0319 13.1888 28.4191 13.2004C29.6241 13.2376 29.1564 13.0753 30.4553 13.3406C32.0488 13.6663 31.5335 13.7035 32.1598 13.8675C32.5897 13.9803 32.6769 13.97 33.0215 14.1572C33.2154 14.2627 33.5026 14.4346 33.5557 14.6542C33.03 14.967 32.4647 14.57 31.789 14.5261C31.0505 14.4779 30.334 14.5847 29.6772 14.5969C28.8972 14.6115 28.4697 14.7969 27.7623 14.8384C26.7238 14.8993 26.4079 15.1164 25.8828 15.1475L25.1876 15.2591L25.4901 15.3335C24.4741 15.5586 24.1344 15.9775 23.5557 16.3269C23.0965 16.6038 23.2563 16.5367 23.0233 16.7898L21.847 17.5728C21.514 17.7253 21.0335 18.2442 20.9853 18.487C20.9639 18.5943 20.9731 18.7053 20.9713 18.8138C21.5445 18.712 21.4201 18.2936 21.9897 18.1674C22.0543 18.1412 22.8447 17.5484 22.9654 17.4545L23.9686 16.7447C25.0681 15.9708 25.1462 16.2794 26.1194 15.919C26.2146 15.8836 26.3402 15.8458 26.4079 15.8238C27.4647 15.4842 27.9581 15.5964 28.5825 15.4299C29.5003 15.1853 31.6457 15.1829 32.4531 15.3537C32.7056 15.3793 33.3215 15.4921 33.6008 15.5549C33.8667 15.6147 34.354 15.7635 34.5052 15.9958C34.035 16.2904 33.2075 16.1788 32.5129 16.2507C32.1287 16.291 31.9598 16.4971 30.6993 16.6465C30.0717 16.7209 28.7021 17.1935 28.1794 17.5131C27.9026 17.682 27.519 18.1076 27.2208 18.1796C26.9592 18.243 26.9482 18.1711 26.7134 18.2979C26.5817 18.3686 26.517 18.4479 26.4463 18.5626C26.2268 18.9181 26.3286 19.0254 25.5139 19.3389C25.2059 19.4572 25.2724 19.4145 25.1218 19.6133L24.9004 19.8566C24.476 20.2305 24.1332 20.5427 23.8704 21.0732C23.6777 21.4611 23.5886 21.305 23.3795 21.6971C22.8934 22.6088 23.199 21.5465 22.5898 23.2131C22.2226 24.2181 21.75 23.9461 21.3823 24.2578C21.2658 24.3566 21.3073 24.4017 21.1262 24.534C20.6413 24.8895 20.8889 24.5773 20.6603 25.1737C20.4889 25.6207 20.5182 25.192 20.2523 25.8927C19.7833 27.1288 19.8906 25.7348 19.6632 28.1308C19.5888 28.9199 19.4912 28.826 19.8181 29.2748L19.898 29.3956C20.2523 29.9133 20.3383 29.9975 20.8267 30.1719C20.8426 30.1774 20.8597 30.1841 20.8755 30.1896L21.7836 30.4012C21.7988 30.4061 21.8153 30.4134 21.8305 30.4182C21.8451 30.4231 21.8616 30.4304 21.8769 30.4347C22.8032 30.6988 25.2962 30.053 25.7749 30.9275C25.8475 30.9701 25.934 31.0159 26.0084 31.0702C26.1072 31.1409 26.0237 31.0891 26.1194 31.1568C26.2042 31.2171 26.1755 31.219 26.3079 31.2745L27.8568 32.052C28.5783 32.2563 28.9612 32.2118 29.8394 32.5112C30.048 32.5825 31.6988 32.7386 31.9829 32.7429C32.6324 32.7527 33.9039 32.6716 34.2698 32.9442C33.982 33.4826 31.8988 33.9168 31.6305 33.9235L31.3249 33.9254C31.3255 33.9266 31.2536 33.8004 31.3676 33.9193C31.4719 34.0278 31.4365 33.8644 31.3914 34.0065C30.6919 34.1449 30.6127 34.0565 30.4047 34.3297C30.5053 34.6925 30.8499 34.6651 31.281 34.6041C31.8476 34.5242 32.5379 34.6505 33.0697 34.4199C33.5124 34.2285 34.1058 34.2211 34.5668 33.9388C35.3468 33.4613 35.09 33.7705 35.4413 33.5528C35.5834 33.465 35.648 33.3643 35.8188 33.2735C36.8073 32.7484 36.1444 33.0192 36.5914 32.7246C36.7567 32.6155 36.8536 32.6252 37.0061 32.4862C37.1262 32.377 37.1756 32.2654 37.2744 32.1044C37.4354 31.841 37.3677 31.9068 37.6354 31.7782C38.0617 31.5733 38.6886 31.2598 38.9984 30.9256L39.1814 30.7555C39.4222 30.575 40.2492 29.5932 40.3913 29.3584C40.9224 28.482 40.7328 27.846 40.8267 27.2118C40.8889 26.794 41.5536 25.8439 41.764 25.503C42.5208 25.3951 42.4738 25.6896 42.9111 25.6902C43.2715 26.1714 43.8356 26.2031 44.3057 26.8934C44.7015 27.4752 45.3315 27.9283 45.4126 28.4278C45.5071 28.5699 45.4089 28.5839 45.6077 28.6217C45.662 28.829 45.8413 29.1535 45.9541 29.3956C46.07 29.6444 46.1389 29.7822 46.259 30.081C46.5097 30.7055 46.4261 31.0006 46.8384 31.4531C47.5177 31.6013 47.6037 31.4141 47.558 30.7738L47.1414 29.7657C46.9829 29.0778 47.5561 29.4004 48.0794 29.223C48.3038 29.1468 48.4465 29.026 48.677 29.0376L48.8447 29.0748C48.8581 29.0785 48.8807 29.0864 48.8978 29.0949C48.9709 29.3779 48.2154 29.6682 48.1885 29.9847C48.1324 30.6494 49.3387 30.1749 49.9637 28.9541C50.1613 28.568 50.4394 27.0874 51.7621 28.8772C52.3549 29.6785 51.8042 29.5803 51.6871 30.3621C51.6627 30.4097 51.5273 30.5597 51.4609 30.6427C51.3816 30.7415 51.3273 30.8024 51.2541 30.8982C51.162 31.1403 51.0297 31.2958 50.8529 31.4879C50.6833 31.6727 50.5504 31.8178 50.3754 31.9989C50.0418 32.3447 49.7838 32.5862 49.407 32.9454C49.0331 33.3015 48.2276 33.8607 47.7476 34.1223C47.5025 34.2559 47.3537 34.3766 47.1384 34.4992L45.8084 35.0859C45.5821 35.1725 45.7059 35.1487 45.5095 35.2444L43.8569 35.9579C43.7081 35.9933 43.616 36.0012 43.4648 36.0317L43.1013 36.1348C42.039 36.5617 41.1273 36.6598 40.079 36.9867C38.449 37.4953 34.5869 37.5106 32.8398 37.4325C32.508 37.4173 32.3934 37.3386 32.0787 37.2752L30.5017 36.9452C30.123 36.8788 30.0156 36.8263 29.7058 36.7525C29.0112 36.5873 28.6539 36.744 28.0904 36.422C27.6855 36.3629 27.6275 36.2196 27.2348 36.1952C26.8366 36.1702 26.6201 36.222 26.2603 36.097C25.9048 35.9738 25.0016 35.6463 24.6321 35.6609C23.9478 35.7091 24.0259 35.922 23.4703 36.0354C22.7032 36.1915 21.8805 36.2555 21.2317 36.9074L20.4724 37.7325C20.1895 38.0984 19.8102 39.6376 20.0102 40.2926C20.1303 40.6859 20.1809 41.0835 20.3151 41.5031C20.3767 41.6958 20.4279 41.9696 20.4974 42.1203C20.7834 42.7404 20.9152 43.0527 21.3347 43.5936C21.3713 43.6412 21.475 43.7485 21.5305 43.7967C21.6531 43.9034 21.6189 43.8564 21.7421 43.9796L21.9348 44.1827C22.2385 44.5047 22.9709 45.295 23.3118 45.5188C24.007 45.975 23.5075 45.7853 24.1259 46.2171L24.3522 46.386C24.8931 46.7982 24.5632 46.3823 25.1065 46.8178C25.3102 46.9812 25.4047 46.955 25.6596 47.0641C25.8798 47.1587 25.9487 47.2965 26.1213 47.3873C26.4146 47.5422 26.3603 47.3953 26.6707 47.6288C26.975 47.8575 27.6379 47.9234 27.8215 48.0917C28.0209 48.0953 28.1398 48.2039 28.3179 48.3021C27.8642 48.3009 27.6836 48.2917 27.3184 48.4033C27.7422 48.8168 28.0593 48.7924 28.0386 49.3729C28.013 50.084 27.9751 50.2822 27.6977 50.6981C26.6793 50.6999 27.0299 50.6816 26.736 50.4706C26.5872 50.3639 26.1048 50.2676 25.8627 50.2273C24.812 50.0505 25.0291 49.9553 24.1326 49.6522L23.9875 49.5949C23.9686 49.5864 23.9173 49.5602 23.8991 49.5516C23.8192 49.5138 23.7753 49.4925 23.721 49.4687C23.1764 49.2309 23.0063 49.2058 22.419 49.0625L20.7694 48.4003C20.5554 48.3301 20.4523 48.3734 20.27 48.2978C19.8797 48.1356 20.2895 48.1966 19.9016 48.0844C19.6553 48.0136 19.6992 48.0716 19.4552 47.9222C19.2906 47.8209 19.3259 47.813 19.0997 47.7795C18.8283 47.7392 18.8143 47.7947 18.5881 47.666L16.6171 46.2707C16.6055 46.2628 16.589 46.2518 16.5775 46.2439L16.2481 45.9756C14.5431 44.4071 15.2334 45.0188 14.2644 43.3387C13.8003 42.5343 13.3826 40.6926 13.238 39.7858C13.0148 38.3753 13.0594 37.0453 13.4088 35.6457C13.4966 35.2938 13.5984 35.0609 13.7149 34.7767L15.3401 31.6593C15.5224 31.3708 15.409 31.3293 15.7249 31.1189C15.7719 30.8775 15.7463 31.0891 15.7743 30.9305C15.7767 30.9183 15.7786 30.8982 15.7804 30.886L15.7877 30.8006C15.8109 30.6506 15.7194 30.7421 15.8719 30.611C15.6121 30.7238 15.756 30.65 15.509 30.7006C15.5359 30.9738 15.2803 31.1921 15.1376 31.3976L14.3418 32.7807C14.204 33.1247 14.1375 33.157 13.9948 33.4942C13.1892 35.4042 12.6569 36.4232 12.9356 38.9077L13.2252 40.7994C13.3649 42.6136 14.115 43.696 14.1888 44.1827C14.4266 44.2577 14.3894 44.2961 14.512 44.476L16.2982 46.125C16.4957 46.3275 16.8592 46.8245 17.1891 46.9251C17.6654 47.0824 17.9941 47.405 18.2697 47.649C18.5393 47.8874 18.9326 47.7917 18.9448 48.1838L18.9424 48.2771C18.9997 48.5235 19.2034 48.4667 19.4321 48.5942L19.5522 48.671C20.2675 49.0674 19.7547 49.0424 20.8523 49.2235L22.9941 49.7858C23.252 49.8828 23.3594 49.945 23.5947 50.0444L23.9722 50.1968C24.6809 50.5097 25.2852 50.3121 26.1085 50.6231L26.722 50.9286C27.4098 51.1573 27.0909 50.6902 27.2995 51.2402L28.3014 51.3348C28.2734 51.3384 27.8257 51.2756 27.644 51.2726L27.7483 51.1719C27.7916 51.1311 27.8745 51.0536 27.8745 51.0536C27.8898 51.0396 27.9276 51.0048 27.9416 50.9914L28.0422 50.9018C28.5014 50.4755 27.8324 50.5475 28.2038 49.7108L28.3106 49.4705C28.1874 49.362 28.1654 49.1918 28.1258 48.9381C28.2666 48.9772 28.4032 49.0424 28.51 49.0516C28.6386 49.0631 28.688 49.0052 28.7405 48.9576C28.7515 48.9473 28.7691 48.9253 28.7783 48.9162C28.788 48.9064 28.8027 48.8851 28.8167 48.8711C29.9162 48.8948 29.7998 49.2577 30.5675 49.5949C31.0816 49.8206 30.7572 49.8193 31.4792 49.8986C32.1323 49.97 31.947 50.1182 32.4428 50.2115C33.8124 50.47 33.1233 50.3975 34.6265 50.5621C35.0632 50.6097 35.1461 50.7816 35.6096 50.7926C36.5207 50.8146 36.5036 50.7377 36.6457 51.0908L35.6584 51.3945C35.2961 51.4897 34.9559 51.5671 34.5778 51.6415C33.0453 51.944 31.3146 52.1964 29.7534 52.0251L26.8128 51.725C25.8932 51.5336 27.4056 51.6354 25.1114 51.4671C23.7576 51.3677 23.0587 51.0945 21.8391 50.7786C21.6543 50.7304 21.4177 50.7103 21.2634 50.6731C20.8877 50.5828 21.0353 50.556 20.8011 50.4664C20.6353 50.4023 20.4456 50.4072 20.2687 50.3322C20.1425 50.2785 20.0242 50.1804 19.8541 50.0919L19.154 49.8047C18.9454 49.7016 19.1143 49.8206 18.9515 49.6705C18.4478 49.5297 17.9794 49.2821 17.6123 48.9656L17.0245 48.5661C16.8214 48.4204 16.897 48.5253 16.6336 48.4369C16.3183 48.3314 14.3443 47.0989 14.0619 46.4872L13.8692 46.3189C13.66 46.1152 13.421 45.975 13.2905 45.6957C12.8471 45.3969 12.3934 44.6797 12.2147 44.1126C12.1147 43.7954 12.0977 43.9601 11.9165 43.5607C11.7994 43.3033 11.7531 43.2478 11.6427 42.971C11.0695 41.5391 11.3951 42.1879 11.042 41.0098C10.7774 40.1249 10.5767 39.0845 10.592 37.9594C10.6011 37.2721 10.8676 35.5689 11.0506 34.9798C11.3146 34.1284 11.9659 32.7624 12.4501 32.0166C12.605 31.7776 12.6947 31.783 12.8654 31.5812C13.1984 31.186 13.2362 31.0006 13.6991 30.6945C13.9729 30.5134 13.9485 30.4103 14.165 30.2365C14.7077 29.8005 14.6644 29.6682 14.2979 29.1852C14.1534 28.9943 13.8844 27.3539 13.8771 27.0075C13.8662 26.4281 13.8588 25.8488 13.8741 25.2701C13.882 24.9316 13.868 24.5871 13.9101 24.2529C13.9302 24.0955 13.9625 23.9138 13.9924 23.8071C14.0778 23.5016 14.0448 23.69 14.1064 23.5296C14.1394 23.0832 14.1424 23.2003 14.2625 22.9015C14.3449 22.6972 14.3156 22.5069 14.3583 22.2709C14.2095 22.288 14.2979 22.2435 14.2174 22.3209C14.2406 22.6698 14.2985 22.5801 14.0973 22.6929C14.2113 22.2776 14.2485 22.0538 14.3973 21.6867C14.4967 21.4404 14.5937 20.9897 14.7138 20.7439C15.0315 20.0896 15.1145 19.7981 15.5938 19.1279L16.7574 17.6551C17.1104 17.2941 18.0526 16.2843 18.3149 16.1159C19.0009 15.6781 19.465 15.225 20.3047 14.9286C20.6371 14.8109 20.8706 14.6761 21.1798 14.5517C21.3945 14.4651 21.4896 14.4786 21.7165 14.4151C21.9696 14.345 21.9293 14.3072 22.1659 14.2151C22.8294 13.9553 24.554 13.5248 25.1443 13.4742C25.5889 13.2205 26.3048 13.5839 26.3786 13.2479L26.3817 13.2443ZM35.1687 30.1237C33.8783 30.1951 32.5104 30.2225 31.267 30.0932C30.9316 30.0585 30.8151 29.9584 30.4956 29.8895C29.815 29.7438 29.9601 29.9761 29.2674 29.6523C29.0978 29.573 29.0539 29.581 28.8643 29.5236L26.0902 28.2643C25.6078 28.0728 25.7944 28.0003 25.4986 27.8155C25.0614 27.5423 24.1832 27.6887 23.6673 27.7259C22.4629 27.8118 22.2501 27.7277 22.3226 27.0691C22.6946 26.7806 22.7416 26.5361 23.1782 26.3123C23.3929 26.2019 23.5563 26.2001 23.7667 26.1001L24.6052 25.6921C25.1901 25.2402 25.1468 24.3407 25.5023 23.8169C25.5096 23.8059 25.5224 23.7912 25.5303 23.7809L26.2756 22.746C26.4378 22.5521 26.3329 22.7149 26.4366 22.5076C26.6933 21.9947 26.7043 22.2496 27.0202 21.841C28.1337 20.3975 28.46 20.4232 29.9132 19.7109C30.6114 19.3688 33.263 18.7803 33.9624 18.7595C36.4652 18.6864 36.3261 18.8522 38.352 19.3114C38.7148 19.3938 39.3741 19.8206 39.4796 19.8109C39.6503 20.2939 39.8845 20.189 40.534 21.0915C40.6224 21.2147 40.6492 21.2336 40.745 21.3434C40.898 21.519 41.02 21.6428 41.134 21.8709C41.2627 22.1282 41.2639 22.3112 41.3536 22.585C41.5286 23.1204 41.9902 23.4741 41.3767 24.7188C40.9261 25.6341 40.3089 26.8081 39.5491 27.5069C39.3869 27.6557 39.2332 27.86 39.1015 27.9802L38.1971 28.6571C38.0995 28.7491 38.1331 28.701 38.0593 28.8364C37.919 28.8711 37.6452 29.1157 37.447 29.2236C36.8957 29.5242 35.7931 29.9109 35.1687 30.1237ZM48.8843 46.2726L48.5062 46.3488C48.3934 46.4653 47.4927 47.1135 47.2476 47.1959C46.9975 47.28 46.5755 47.3599 46.3401 47.3989C45.9181 47.4691 45.8382 47.5538 45.4778 47.6575L43.6514 48.0722C43.3398 48.1252 42.9714 48.138 42.6183 48.2002C42.3445 48.2484 42.0354 48.335 41.7085 48.3929C41.048 48.5106 40.4224 48.5393 39.7948 48.6698C38.8191 48.8723 36.589 48.8229 35.5626 48.7174C35.2339 48.6838 34.929 48.6241 34.6137 48.571C34.2533 48.5106 33.8789 48.5491 33.5136 48.5198C32.8922 48.4704 30.2669 48.0655 29.7674 47.8972C28.8661 47.5941 28.4234 47.5843 27.3684 46.9294L26.6006 46.5763C26.2908 46.4305 26.3189 46.4945 25.8804 46.236C25.6791 46.1177 25.3639 45.9494 25.1785 45.8195C24.7126 45.4926 23.8753 45.1084 23.5685 44.6449C23.4527 44.4693 23.4868 44.4144 23.2014 44.1717L23.0075 44.0491C22.8465 43.9516 21.7945 43.1362 21.7805 42.5557C21.6152 42.4813 21.6079 42.4831 21.4854 42.2416C21.0573 41.397 20.4352 40.2773 20.8072 39.2699L20.9896 38.9735C21.2189 38.6857 21.1646 38.7381 21.2725 38.3576C21.4219 37.8313 21.4719 38.0868 21.8677 37.5569C21.8695 37.5551 21.9818 37.416 21.9866 37.4112C22.1897 37.1922 22.8117 37.1099 23.1099 37.0379C24.49 36.7056 27.4336 37.5459 28.7484 37.6032C29.3113 37.6283 29.3216 37.7295 29.801 37.8021C29.9699 37.8277 30.1303 37.8399 30.3248 37.8838C30.5053 37.9246 30.5596 37.9673 30.7828 38.0204C31.1889 38.1179 32.5885 38.3046 33.0392 38.3198C34.2308 38.3607 37.9532 38.31 39.0777 38.0801C39.2954 38.0356 39.3393 38.0277 39.5747 38.0027C39.6967 37.9899 39.7845 37.9868 39.8772 37.9466C40.0528 37.8697 39.9766 37.9015 40.0802 37.7947L40.4772 37.6819C40.7962 37.5392 41.0206 37.5289 41.3725 37.4734L45.2473 36.25C45.5047 36.2403 45.7852 36.1994 46.0218 36.1366C46.1535 36.1019 46.1694 36.0823 46.2926 36.0195L46.5139 35.911C46.717 35.789 46.6255 35.7677 46.9536 35.6292L47.9245 35.1377C48.7843 34.7413 48.4544 34.5822 49.1472 34.2035C49.3954 34.0675 49.4149 34.0467 49.6161 33.8778L52.1036 31.2988C52.1134 31.269 52.1402 31.2738 52.1591 31.2629C52.1902 31.1818 52.2262 31.1665 52.2817 31.0848C52.3213 30.8561 52.736 29.9664 52.9019 29.906C53.4093 29.8779 53.5422 30.1841 53.7435 30.5183C54.0904 31.0958 53.8502 32.2002 53.5172 32.7643C53.3324 33.0777 53.2099 33.3942 53.0434 33.6772C52.1067 35.2664 51.7091 35.0962 50.5047 36.0262C49.4161 36.866 49.9137 36.5867 48.4227 37.4416L46.4603 38.2588C46.0669 38.3844 45.9139 38.5064 45.423 38.6107C44.9967 38.7009 44.8204 38.8943 44.4375 38.9955C43.4105 39.2663 41.9414 39.5864 40.8931 39.7023C40.6602 39.7279 40.4687 39.737 40.2418 39.7742C39.929 39.8255 40.1918 39.7694 40.0046 39.8486C38.81 40.3554 35.759 40.2609 34.4906 40.2304C33.3794 40.2036 33.86 40.1682 33.2361 40.1066C32.0415 39.9895 30.5791 39.9121 29.5711 39.5919C28.8576 39.365 28.0258 39.384 27.2806 39.1181L27.0092 38.9979C26.714 38.879 25.0699 38.9107 24.7217 38.9113C24.2704 38.9119 24.2741 38.9126 23.9771 39.076L23.6149 39.2967C23.6045 39.3053 23.588 39.3175 23.5777 39.326L23.4075 39.4748C23.3996 39.4846 23.3898 39.5016 23.3819 39.5114L23.0374 39.9535C22.6574 40.506 22.9081 41.7537 23.1349 42.269C23.2776 42.5923 23.5246 42.7258 23.8582 42.9234C24.0326 43.0265 24.7973 43.7778 25.3992 44.1388C26.2268 44.634 26.1414 44.6358 26.9488 45.0206L30.2699 46.1866C30.9956 46.4134 31.7939 46.5165 32.6281 46.6068C35.4388 46.9117 35.6413 46.6726 37.9221 46.7263C39.3558 46.7598 41.8506 46.5799 43.0178 46.2238C43.4471 46.0927 43.7386 46.1232 44.2234 46.0414C44.629 45.9731 44.8997 45.8554 45.337 45.7817C45.7681 45.7097 47.5659 45.0224 47.8995 44.848C48.1141 44.7352 48.0507 44.7242 48.3221 44.6004C48.5971 44.4748 48.5617 44.4717 48.7788 44.3254C48.9502 44.2107 49.0392 44.2077 49.1923 44.0784C49.5375 43.7863 50.1406 42.8289 50.3071 42.4288C50.5406 41.8684 50.5315 40.5457 50.4229 39.8407C50.3241 39.1955 50.3278 39.4309 50.1485 39.0534C49.7235 38.1594 49.5118 38.5418 49.5582 37.9569C49.7741 37.7777 49.7344 37.849 50.007 37.7008C50.1949 37.599 50.1924 37.5026 50.5187 37.5508C50.9962 37.6215 53.5825 40.3274 52.1384 43.0698C51.9865 43.3582 51.8042 43.6845 51.7304 44.0528C51.4877 44.2083 51.323 44.4248 51.1309 44.6931C50.8181 45.131 50.0131 45.5121 49.4051 45.9427C49.3167 46.0055 49.2978 46.0073 49.1954 46.0683C49.0484 46.1555 48.9819 46.2262 48.8825 46.2714L48.8843 46.2726ZM49.1856 27.3661C49.5875 27.4179 49.9308 26.9806 50.3388 26.93C50.3126 27.4795 50.0076 27.4947 49.6058 27.7307C49.288 27.9167 48.9142 28.0747 48.5648 28.2143C48.13 28.3881 46.6213 29.14 46.367 28.3235C46.5048 27.9911 46.7005 28.0637 47.0914 28.0399C47.5281 28.0131 48.7605 27.7167 49.077 27.4728C49.0905 27.4624 49.1429 27.4325 49.1502 27.4039C49.1563 27.3813 49.1746 27.3795 49.1862 27.3667L49.1856 27.3661ZM37.7269 50.3639C9.9474 50.3639 60.4162 50.3639 37.7269 50.3639V50.3639ZM41.0084 46.2256C40.7419 46.3775 38.6709 46.5226 38.4532 46.5244C37.5366 46.5342 36.5768 46.5732 35.6816 46.55C34.7223 46.525 33.9143 46.5006 32.98 46.4226C32.5153 46.3836 31.5054 46.3049 31.1292 46.175L30.0095 45.9006C29.5333 45.7926 28.2801 45.284 27.9099 45.1706C27.2482 44.9675 26.2005 44.3528 25.5999 43.9479C25.3212 43.7595 24.7046 43.4552 24.3168 43.0576C23.8832 42.613 23.6935 42.5441 23.5405 42.3794C23.2593 42.0776 23.2642 41.8733 23.238 41.5958L23.4417 42.0282C23.571 42.3739 23.5917 42.3038 23.9216 42.5301L24.3046 42.8002C24.6241 43.0307 24.5821 42.9722 24.7406 42.7173C24.9248 42.4221 24.69 42.5618 24.9473 42.466C25.4938 42.1611 26.6616 42.4941 26.9738 42.5343C27.2519 42.5697 27.4739 42.574 27.7032 42.6069C28.1435 42.6691 27.9282 42.5569 28.2502 42.8173L28.8027 43.1899C28.9301 43.2722 28.8076 43.1972 28.9301 43.2625C29.0332 43.3173 29.0686 43.3326 29.2009 43.3893L30.3047 43.8046C30.484 43.8802 30.6279 43.9833 30.8139 44.0857L32.3336 44.8651C33.3703 45.2749 33.2038 45.3456 33.1892 46.247C33.6209 46.2598 33.6697 46.3439 34.0954 46.3579L38.9801 46.2866C39.6741 46.2811 40.2839 46.2213 41.009 46.2268L41.0084 46.2256ZM52.8232 39.0278C52.7159 38.718 52.3305 38.1747 52.1408 37.9258C51.806 37.4862 51.3041 37.1386 51.2724 36.9013C51.3072 36.4476 51.5499 36.4184 51.831 36.1573C52.425 35.6067 53.2867 34.8944 53.6502 34.1608C53.7996 33.8601 53.9075 33.6113 54.0496 33.3064C54.271 32.8338 54.646 31.8806 54.6588 31.3604C54.6698 30.9018 54.5448 30.5329 54.5332 30.1505C54.5344 29.5651 53.7599 29.1065 53.2824 28.9327C52.2756 28.5656 52.5939 28.404 51.9542 27.8204C51.2425 27.1709 51.0358 27.6374 51.3749 26.3141C51.5566 25.6043 52.1902 25.3774 52.3158 24.759C52.3671 24.5712 52.4653 24.3468 52.5098 24.148C52.7555 23.0466 52.4701 20.8366 52.0341 19.8292C51.9536 19.6432 51.8182 19.4852 51.7133 19.3773C51.6341 18.9834 51.5011 19.1791 51.4938 18.6912C51.4773 17.6094 51.6249 18.0284 51.2688 17.0398C51.17 16.766 51.1425 16.7044 50.937 16.4971C50.6083 16.1659 50.6632 16.2873 50.3979 16.1044C49.8198 15.7061 50.218 15.275 49.0557 14.4725C48.9398 14.3926 49.0459 14.4657 48.9246 14.3974C48.7624 14.306 48.7941 14.3194 48.6532 14.2218C48.1782 13.8931 48.0538 13.9071 47.6824 13.7797C47.5586 13.737 47.5147 13.6833 47.4012 13.6254C46.3304 13.0802 44.3393 13.3144 43.2703 13.2363C43.0343 12.9412 42.1732 12.0667 41.8365 11.8752C41.5993 11.7404 41.5048 11.7874 41.284 11.6892C40.8883 11.513 40.3656 11.2123 39.7595 11.1025C38.5221 10.8781 37.2397 10.8909 35.9596 11.2227L34.6686 11.7349C34.4662 11.8721 34.6894 11.7551 34.4832 11.8642C33.5606 12.3521 33.1727 12.9637 32.8458 13.0881C32.5757 13.1912 32.6281 13.0961 32.3982 12.9973C32.2208 12.9204 32.0018 12.8997 31.8207 12.8345C31.6201 12.7631 31.5609 12.6954 31.3646 12.6448C30.9536 12.5387 27.891 12.3588 27.3641 12.3923C26.9567 12.4186 26.5536 12.51 26.1152 12.5173C24.404 12.5454 24.9047 12.6521 23.6258 12.8814C22.7196 13.0442 22.2879 13.2266 21.5366 13.5675C21.2134 13.7144 20.781 13.7675 20.4639 13.9596L19.4497 14.5158L16.7012 16.8709C16.5409 17.0642 16.4963 17.0386 16.3292 17.2972L16.2561 17.4179C16.2488 17.4277 16.2372 17.4429 16.2292 17.4521C15.853 17.8875 15.706 17.8058 14.9815 18.976C14.6662 19.4852 14.0991 20.8037 13.8942 21.3971C13.7466 21.8245 13.7607 22.0252 13.5808 22.4203L13.5131 22.6954L13.3228 23.1302C13.2886 23.2967 13.2594 23.4308 13.2307 23.554C12.988 24.5804 13.0533 27.5508 13.3618 28.4729C13.4509 28.7388 13.5899 29.0736 13.5222 29.4352C13.4673 29.7267 13.2173 29.8462 12.999 29.9895C12.4843 30.328 12.3001 30.5762 11.9403 31.1061C11.7549 31.3787 11.6031 31.4733 11.45 31.7355L10.3115 33.8254C10.206 34.0821 10.1986 34.4035 10.0858 34.6602C9.91751 35.0426 9.76079 35.9988 9.70102 36.4531C9.66139 36.7544 9.64858 37.1715 9.6248 37.4349C9.46014 39.2547 9.76506 39.5462 9.89129 40.4536C9.92788 40.7195 9.93398 41.1433 10.0328 41.3708C10.1279 41.5909 10.1236 41.4214 10.1645 41.7812C10.2688 42.7002 10.4621 42.7935 10.8475 43.7863C10.9756 44.1156 11.1695 44.2071 11.2408 44.4443C11.4604 45.1694 11.3488 45.0358 12.0318 45.8341C12.2733 46.1158 12.7977 46.7793 13.0825 46.9592C13.3637 47.1373 13.4557 47.2806 13.671 47.4337C13.8759 47.5794 13.9832 47.5922 14.015 47.7654C14.0381 47.7618 14.0589 47.7599 14.0759 47.7618C14.104 47.7642 15.1803 48.3856 15.4066 48.4509C15.7682 48.5546 15.9133 48.6186 16.0006 48.7784L17.272 49.97C17.4452 50.1505 17.7355 50.4651 17.9508 50.6085L19.1528 51.2902C19.6857 51.4939 19.4223 51.4683 20.0614 51.6208C20.2895 51.675 20.1602 51.6391 20.3261 51.6994C20.7566 51.8562 22.3202 52.2623 22.5489 52.3934C22.7227 52.4922 22.8288 52.5392 22.9849 52.6069C24.1826 53.1277 24.2973 52.8892 25.7176 53.0972C26.2713 53.1783 27.3507 53.4265 27.9422 53.1557C28.3612 52.9636 28.3307 52.8642 28.9503 52.8666C30.2266 52.8721 31.4213 53.0081 32.6916 52.7526C34.0472 52.4794 35.8114 52.327 36.9518 51.8775C37.5903 51.6256 38.3496 51.6775 38.9819 51.3348C40.3955 50.5682 39.9522 51.1012 40.4821 50.7902C40.4992 50.7804 40.5901 50.7231 40.6077 50.7133C40.8742 50.5688 40.8889 50.6328 41.1566 50.4749C41.1688 50.4676 41.1846 50.456 41.1962 50.4487C41.2084 50.4414 41.2249 50.4304 41.2377 50.4231L41.6591 50.1895C42.397 49.7888 43.1141 49.8187 44.2692 48.9119C44.5844 48.6643 45.0924 48.3344 45.5864 48.3003C45.7352 48.2753 45.8822 48.2606 45.9614 48.2606C46.5585 48.2606 46.967 47.938 47.3207 47.9624C47.3329 47.9636 47.6439 47.7697 47.9409 47.5807C47.9909 47.5258 48.0446 47.4928 48.1062 47.4745C48.2812 47.3623 48.427 47.266 48.469 47.2349C48.469 47.1318 48.6996 47.1221 48.7435 47.0824L48.7508 47.0678C48.7624 46.9873 48.8453 46.9464 48.938 46.8915C49.0374 46.8245 49.1868 46.7373 49.4149 46.6068C50.4345 46.0232 51.5859 45.2743 52.2646 44.3138C52.5378 43.9266 53.1702 42.5227 53.255 41.9739C53.4971 40.417 52.9928 39.7852 52.8238 39.0266L52.8232 39.0278ZM49.4826 39.7303C49.9082 40.4036 49.7783 41.5915 49.5009 42.219C49.1667 42.9746 48.3056 43.5338 47.5921 43.9363L46.0925 44.6083C45.8876 44.6779 45.7224 44.6998 45.5242 44.77C45.251 44.8669 45.3723 44.9084 45.0235 44.9779C44.6509 45.0523 44.002 45.2285 43.8075 45.1962C43.1587 45.0889 43.8075 44.2486 43.81 44.2431C44.174 43.554 43.9368 42.255 44.5442 42.0678C44.6753 42.0276 45.065 41.9946 45.1943 41.9745C46.1462 41.8275 46.2005 41.5513 46.7262 41.358C47.0988 41.2208 47.9476 40.8914 48.2294 40.6701C48.3812 40.5505 48.5319 40.481 48.6557 40.3713C49.0283 40.0401 48.8734 39.7462 49.4826 39.7303ZM30.7322 42.2154C30.5687 42.0068 29.7565 41.6232 29.6436 41.5525C29.0375 41.1695 29.06 41.4385 28.949 41.1909C29.0143 41.0451 28.8313 41.0579 29.2058 41.0604L30.1565 41.3086C30.6621 41.4263 30.8798 41.4775 31.356 41.6287C32.397 41.9593 32.2104 42.0343 33.6996 42.313C33.8789 42.6667 33.6472 42.2861 33.8454 42.4746C33.8948 42.5215 33.9179 42.5569 33.9259 42.5416C33.9326 42.5301 33.9557 42.5605 33.9673 42.574C34.3375 42.4703 34.8461 42.6557 35.2345 42.7264C36.9195 43.0326 37.4964 42.9966 39.0588 42.7575C39.6869 42.6612 39.6936 42.7661 40.2479 42.5221C40.5419 42.3928 40.9816 42.263 41.2249 42.1026C42.6452 41.1659 42.1317 41.519 42.4384 40.5451L42.8745 40.5823C43.1946 41.1561 43.6977 41.4037 43.6349 42.5727C43.5636 43.9083 43.2221 44.0339 42.9751 44.7437C42.905 44.9456 42.819 44.9803 42.6623 45.1365C42.0067 45.7932 39.0942 45.9286 38.4508 45.9036C36.9598 45.8463 37.2189 45.9311 36.0792 45.4243C34.879 44.8907 34.2326 43.9497 32.7757 43.0393C32.2622 42.7185 32.9885 42.9636 31.8439 42.5788C31.2109 42.366 31.131 42.244 30.7334 42.2148L30.7322 42.2154ZM34.8888 12.2435C35.3004 12.2258 35.5876 11.924 36.0145 11.8374C37.719 11.491 39.8491 11.4916 41.2908 12.4222C41.6804 12.6741 41.653 12.5527 41.9799 12.9217C42.5598 13.5766 41.7829 13.5126 41.2529 13.6181C40.7706 13.7138 40.584 13.873 40.0052 13.9346C39.8772 14.195 39.6418 14.1785 39.3497 14.2974C39.2716 14.3291 39.3271 14.3127 39.2112 14.3627C39.1045 14.4084 39.0252 14.4316 38.9307 14.4578C38.649 14.4828 38.7539 14.4523 38.5715 14.5883C38.4313 14.6932 38.5532 14.6048 38.4685 14.6816C38.4587 14.6908 38.4441 14.7042 38.4343 14.7133L38.3654 14.7761C38.2099 14.9115 38.0709 14.9975 37.8788 15.0902C37.5812 15.2329 37.4427 15.514 37.0665 15.9153C36.6359 15.9275 36.5317 15.9177 36.2706 15.7244C36.0975 15.5964 35.9005 15.4439 35.72 15.3555C34.6881 14.8487 35.0943 14.7585 34.5863 14.3078C34.5765 14.2987 34.5613 14.2858 34.5509 14.2773L34.2167 14.0163C33.9649 13.801 33.3105 13.5272 33.8015 12.915C33.9862 12.6844 33.771 12.868 34.0649 12.7229C34.2808 12.6161 34.1625 12.6271 34.3851 12.5844C34.4875 12.5497 34.5546 12.5399 34.6619 12.4728C34.679 12.4625 34.7674 12.3917 34.7808 12.3789C34.8937 12.2722 34.7955 12.3966 34.8888 12.2447V12.2435ZM38.377 15.589C38.391 15.5659 38.4069 15.5409 38.4258 15.5134C38.4544 15.4707 38.4746 15.4384 38.4923 15.4134C38.5349 15.3768 38.591 15.3408 38.6508 15.3012C38.6801 15.2927 38.7173 15.2829 38.7642 15.2701C39.01 15.1731 39.0393 15.064 39.2588 14.9414C39.4418 14.839 39.6259 14.8237 39.8375 14.7194C40.8334 14.2285 40.2894 14.5365 40.9913 14.281C42.1476 13.8596 42.6562 14.0322 43.8374 13.912C45.0156 13.7919 45.8145 13.887 46.778 14.1279L48.0586 14.5029C48.2507 14.5999 49.0655 14.9518 48.7538 15.2628C48.4953 15.3701 47.2262 15.3146 46.8249 15.3451C46.1663 15.3945 45.6016 15.4518 44.9534 15.5458C43.5764 15.7458 44.3442 15.6525 43.2751 15.9208C42.3183 16.1605 42.6519 16.266 41.7054 16.3001C41.4835 16.3154 41.3042 16.2483 41.2969 16.4385C40.9596 16.5081 41.1663 16.5495 40.9413 16.7557L40.0687 17.2167C39.0643 17.5649 38.8819 16.9691 38.6575 16.8496C38.0391 16.5209 38.1398 16.5794 37.7916 16.5812C37.7873 16.2751 37.7733 16.269 37.905 16.0989C37.9117 16.0897 38.0507 15.9531 38.08 15.9342C38.2776 15.8025 38.0587 15.9141 38.3209 15.8171C38.4069 15.6537 38.3825 15.6238 38.3776 15.5903L38.377 15.589ZM41.1231 17.5094C41.2176 17.4826 41.5408 17.2508 41.792 17.1545C42.0665 17.049 42.2403 16.9593 42.4781 16.8465C43.8435 16.7014 43.7014 16.0659 47.361 15.9909C48.1727 15.9745 49.3094 15.9543 49.7991 16.3861C49.8979 16.4733 50.0083 16.6215 50.1119 16.73C50.2619 16.8868 50.3187 16.9404 50.4595 17.1014C50.7016 17.3783 50.8803 17.6112 50.8175 18.1217C50.4723 18.154 50.3979 18.0259 50.204 17.8899C50.0107 17.7539 49.8149 17.6283 49.5917 17.5088C49.2386 17.3191 48.5819 17.0984 48.1574 17.0173C47.6488 16.9203 46.8597 16.9099 46.3023 16.9508C45.787 16.9886 44.9564 17.21 44.4966 17.1514C44.4734 17.1947 44.5405 17.2039 44.2753 17.3118C44.2015 17.3417 44.063 17.3819 43.9789 17.413C42.5397 17.9338 42.5744 17.9466 41.3682 18.8169C40.9883 19.0913 40.8462 19.3785 40.2882 19.295C40.2132 18.7382 40.3961 18.5687 40.7468 18.2101C40.7565 18.2003 40.77 18.1863 40.7791 18.1766L40.9011 18.032C41.0499 17.8344 41.0804 17.7753 41.1231 17.5088V17.5094ZM38.4538 15.4506C38.4642 15.4378 38.4776 15.4256 38.4916 15.4134L38.4538 15.4506Z" fill="#475816"/>
<path fill-rule="evenodd" clip-rule="evenodd" d="M47.9596 23.2473C48.3663 23.0156 48.8633 23.1448 48.6139 23.69C48.5225 23.8894 48.2303 23.9169 48.0639 23.8071C47.8675 23.6778 47.923 23.5272 47.9596 23.2479V23.2473ZM48.6664 20.7818C49.5274 20.1219 49.6214 20.4409 50.0403 20.7574C50.0513 21.2849 49.8677 21.7447 49.3402 21.7642C48.7341 21.7867 48.6255 21.3605 48.6664 20.7818ZM49.6451 25.0371C49.7744 25.0127 50.1507 24.7883 50.2281 24.6737C50.3733 24.1834 50.5745 24.159 50.7337 23.7217C51.013 22.954 51.0801 22.2362 50.8069 21.5172C50.6325 21.0586 50.6782 20.9836 50.3745 20.6232C50.0141 20.1957 49.4476 19.5658 48.8816 19.5109C47.3918 19.3669 47.0668 19.8438 46.4692 20.3634C45.8996 20.858 45.9057 20.8958 45.6374 21.541C45.4257 22.049 45.4477 23.5827 45.8965 24.1163C45.9508 24.1815 45.9911 24.2291 46.0374 24.2901C46.2441 24.5633 46.5295 24.6859 46.8771 24.8036C47.0546 24.8633 47.1674 24.9018 47.3217 25.0012C47.6455 25.2103 48.0132 25.1085 48.4657 25.1561C49.1085 25.2231 49.0945 25.1207 49.6458 25.0377L49.6451 25.0371Z" fill="#13121B"/>
<path fill-rule="evenodd" clip-rule="evenodd" d="M26.6782 19.6036C26.6062 19.9231 26.5898 20.197 26.4428 20.4622C26.3294 20.6684 26.3477 20.6141 26.222 20.7757C26.0049 21.055 26.219 20.8848 25.9031 21.0666C25.7122 21.1763 25.7464 21.1349 25.6421 21.3081L24.8414 22.6198C24.8316 22.6369 24.8011 22.6851 24.7914 22.7021C24.5407 23.1363 24.6151 23.1571 24.4987 23.4754L24.237 24.0663C24.2291 24.0864 24.2047 24.1426 24.1956 24.1608L24.1468 24.2438C24.0919 24.3389 24.1017 24.3109 24.0529 24.4042C23.7791 24.9262 23.74 24.8725 23.0107 24.8682C22.7728 25.375 22.7936 25.0134 22.1551 25.6202C21.6264 26.1233 21.5507 25.908 21.4428 26.6056C21.3861 26.9703 21.4452 26.6752 21.33 26.9039C21.1855 27.1911 21.2879 27.2502 21.2147 27.5765C21.0702 28.2199 21.0672 28.276 21.3367 28.7833C21.5099 28.8468 21.5379 28.9474 21.7416 29.1322C22.3167 29.653 24.1132 29.159 25.2939 29.5292C25.4195 29.5682 26.1275 30.0835 26.2342 30.1817C26.4678 30.3976 28.0906 31.055 28.4174 31.1818C29.201 31.4867 30.0603 31.6459 31.0135 31.7636C31.9233 31.8764 33.0247 32.0337 34.0108 31.8868C34.9109 31.7526 36.9538 31.2605 37.7118 30.8171L38.6339 30.1542C39.1065 29.6359 39.3516 29.4109 39.6901 28.8303C39.8468 28.5614 39.8731 28.7181 39.856 28.2394C39.648 28.3449 39.831 28.2583 39.6791 28.3613C38.9803 28.8352 38.207 29.5664 37.7594 29.803C37.5118 29.9335 37.4185 30.0128 37.1672 30.1323C36.7788 30.3171 35.4987 30.697 35.0798 30.7507C34.4761 30.8281 33.9717 30.8549 33.3046 30.8555C32.4746 30.8562 29.3163 30.4177 28.7266 30.0707C28.4186 30.0237 28.1808 29.8932 27.9759 29.7548C27.0386 29.4346 27.2764 29.4523 26.5373 29.0864L25.2311 28.2699C24.7694 28.1345 24.4859 28.4937 23.4065 28.4864C22.4954 28.4797 22.371 28.59 21.7246 28.193C21.6056 27.4057 21.6752 27.0575 22.0307 26.5495C22.2325 26.2617 22.7539 25.8354 23.1223 25.7318C23.2528 25.6952 23.4272 25.6891 23.604 25.6702C24.4334 25.5817 24.4901 24.7938 24.5328 24.6841L25.0188 23.7059C25.0829 23.6492 25.6323 22.7662 25.7256 22.5887C26.1013 21.8746 26.8916 21.0672 27.4258 20.4647C27.621 20.2439 27.7283 20.25 27.932 20.0463C28.3546 19.6231 28.2509 19.939 28.4138 19.6627C28.7736 19.5585 28.6174 19.4908 28.9352 19.3578C29.2132 19.2414 29.2498 19.2578 29.4944 19.1121C29.9889 18.8181 31.3025 18.6041 31.8477 18.4285C33.0844 18.029 34.8359 18.1339 36.0787 18.1668C37.2788 18.1986 38.2381 18.5577 38.8473 18.5584C38.7998 17.8455 37.9673 17.4918 37.3618 17.2661C36.283 16.8636 34.8292 16.7673 33.7107 16.9716L32.3746 17.1466C31.8672 17.2521 31.6166 17.1472 30.8945 17.385C30.8793 17.3899 30.8628 17.3978 30.8476 17.4027C30.4475 17.5338 29.5255 17.5851 28.6156 18.0308C28.4211 18.1266 28.4589 18.1516 28.3034 18.2412L27.7033 18.6309C27.4575 18.7895 27.3179 18.8517 27.113 19.0987C27.0032 19.231 26.9929 19.2755 26.8935 19.4109L26.677 19.6054L26.6782 19.6036Z" fill="#70924A"/>
<path fill-rule="evenodd" clip-rule="evenodd" d="M33.9661 42.5752C33.4276 42.7191 33.069 42.3587 32.5684 42.566L32.7294 42.6923C33.2849 43.0746 34.16 43.6582 34.5942 44.1333C34.8412 44.404 34.882 44.3571 35.2577 44.6455C36.1566 45.3346 35.9371 45.0858 36.7615 45.5127C37.2244 45.7524 39.2826 45.7432 39.9747 45.5499C40.8279 45.3121 42.2799 45.7621 43.0806 43.9064C43.3574 43.2649 43.4678 41.3025 42.7409 41.1268C42.3512 41.4195 42.6732 41.4927 42.0164 41.8574C41.7408 42.0105 41.4469 42.305 41.2169 42.4355C41.0529 42.5288 41.0944 42.4752 40.9218 42.5422C40.7742 42.5996 40.8114 42.6026 40.709 42.6545C40.2717 42.8758 38.0464 43.1362 37.5946 43.1448C36.517 43.1661 35.4589 42.9283 34.443 42.7856C33.8319 42.6996 33.9899 42.6831 33.9661 42.5746V42.5752Z" fill="#EB9AB9"/>
<path fill-rule="evenodd" clip-rule="evenodd" d="M22.7568 27.3179C22.8575 27.0264 22.7282 27.2191 22.9465 26.9965L23.2075 26.7471C23.3508 26.5952 23.8387 26.3562 24.0655 26.3135C24.4467 26.2422 24.2973 26.2995 24.551 26.0988C24.9199 25.808 25.001 25.833 25.1766 25.55C25.4925 25.0408 25.3224 25.25 25.4511 24.853L26.1969 23.4857C26.3207 23.1936 26.3164 23.2369 26.4658 23.0137C26.4744 23.0015 26.5421 22.8905 26.5421 22.8899C26.5506 22.8771 26.5616 22.8607 26.5701 22.8485L26.9305 22.3508C26.9866 22.288 27.0336 22.2551 27.0994 22.1844C27.2104 22.0648 27.3342 21.9349 27.4434 21.805C27.7007 21.4989 27.8324 21.3794 28.1453 21.1165C28.2929 20.9921 28.3959 20.8927 28.5331 20.7817C28.8484 20.5268 30.0266 19.9231 30.434 19.7749C30.6236 19.7066 30.8773 19.7048 31.0572 19.6554C31.389 19.5645 31.1786 19.531 31.5817 19.4474C32.4171 19.2743 33.9423 19.0559 34.7558 19.0614C36.2432 19.0712 36.1078 19.1486 37.2811 19.373C38.7276 19.6505 39.174 19.8572 40.09 20.9354C40.3077 21.1922 40.5114 21.4788 40.7187 21.702C40.9486 21.9496 41.5011 23.501 41.4432 23.8163C41.3395 24.3755 40.4199 26.0324 40.0058 26.652C39.9107 26.7947 39.8631 26.9154 39.6735 27.038C39.4375 27.1904 39.4716 27.1782 39.2869 27.3758L38.0928 28.3686C37.7172 28.5375 37.9593 28.3637 37.6635 28.5924L36.7774 29.1559C36.4359 29.3401 35.5328 29.5986 35.1425 29.6724C33.6862 29.9469 33.0209 29.8103 31.5914 29.7657C30.5309 29.7328 31.0359 29.5145 30.2065 29.5084C29.6266 29.5041 29.793 29.4395 29.1838 29.2413L28.9015 29.0949C28.5441 28.8223 28.8063 29.1504 28.0453 28.787C27.9282 28.7309 27.8855 28.7315 27.7538 28.6882C27.5013 28.6058 27.3989 28.5266 27.183 28.3778C26.4713 27.8887 26.5866 28.2869 26.0944 27.8789C24.8681 26.863 25.2462 27.3947 22.7581 27.3173L22.7568 27.3179ZM35.1675 30.1243C35.7919 29.9115 36.8945 29.5255 37.4458 29.2242C37.644 29.1163 37.9178 28.8717 38.0581 28.837C38.1318 28.7016 38.0983 28.7498 38.1959 28.6577L39.1003 27.9808C39.232 27.8606 39.3857 27.6563 39.5479 27.5075C40.3077 26.8093 40.9249 25.6354 41.3755 24.7194C41.9884 23.4748 41.5268 23.1211 41.3523 22.5856C41.2633 22.3118 41.2621 22.1289 41.1328 21.8715C41.0188 21.644 40.8968 21.5196 40.7437 21.344C40.648 21.2342 40.6212 21.2153 40.5327 21.0922C39.8833 20.1896 39.6491 20.2945 39.4783 19.8115C39.3728 19.8213 38.7142 19.3944 38.3508 19.3121C36.3255 18.8535 36.4646 18.687 33.9612 18.7602C33.2617 18.7809 30.6102 19.3688 29.912 19.7115C28.4594 20.4232 28.1331 20.3976 27.0189 21.8416C26.703 22.2502 26.6927 21.9959 26.4353 22.5082C26.3317 22.7149 26.4365 22.5521 26.2743 22.7466L25.5291 23.7815C25.5212 23.7919 25.5084 23.8065 25.5011 23.8175C25.1455 24.3413 25.1888 25.2402 24.604 25.6927L23.7655 26.1007C23.5551 26.2007 23.3917 26.2031 23.177 26.3129C22.741 26.5367 22.6934 26.7812 22.3214 27.0697C22.2482 27.7283 22.4611 27.8125 23.6661 27.7265C24.182 27.6893 25.0602 27.5435 25.4974 27.8161C25.7932 28.0009 25.6066 28.0735 26.0889 28.265L28.8631 29.5243C29.0521 29.5816 29.096 29.5736 29.2662 29.6529C29.9583 29.9761 29.8138 29.7444 30.4943 29.8901C30.8139 29.9584 30.9304 30.0591 31.2658 30.0938C32.5092 30.2231 33.8771 30.1963 35.1675 30.1243Z" fill="#AFAFB1"/>
<path fill-rule="evenodd" clip-rule="evenodd" d="M44.4567 42.3795C44.289 42.9027 44.4885 43.0991 44.1012 44.2712C44.0164 44.5273 43.9286 44.4925 43.9494 44.8602C44.3519 44.881 45.0641 44.6797 45.4416 44.4901L46.879 44.0101C47.4364 43.8546 48.7658 42.9314 49.0994 42.3417C49.1933 42.1758 49.1908 42.0831 49.2408 41.8751C49.3293 41.5074 49.5037 41.4233 49.4714 40.7963C49.4592 40.5585 49.4268 40.4731 49.2738 40.3231C48.95 40.3579 49.0359 40.4731 48.7493 40.6652C48.5456 40.8018 48.4255 40.847 48.1926 40.9793C47.7773 41.2147 47.64 41.3751 47.0766 41.5721C46.1673 41.8904 46.4417 41.8818 45.8356 42.0575C45.1544 42.2544 44.7488 42.2788 44.4561 42.3801L44.4567 42.3795Z" fill="#ED6589"/>
<path fill-rule="evenodd" clip-rule="evenodd" d="M41.6097 20.9989C41.5329 20.3616 40.8511 20.5104 41.7732 19.6353C42.1494 19.2779 42.2867 19.2767 42.6495 19.1096C42.8715 19.0078 42.6715 19.0742 42.9233 18.9279L44.8479 18.0717C45.1449 18.0357 45.4303 18.0766 45.7328 18.0326C46.0767 17.9826 46.1725 17.8814 46.4987 17.8515C46.761 17.8277 47.1574 17.8491 47.43 17.8582C47.8745 17.8729 48.9551 18.2876 49.1924 18.4315C49.6272 18.6943 50.2138 19.0413 50.5852 19.3602C51.0432 19.753 51.181 20.1725 51.1847 20.7342C51.1627 20.7183 51.1414 20.6994 51.1231 20.683C51.1054 20.6677 51.0853 20.6531 51.0645 20.6348L50.6535 20.228C49.9144 19.6304 50.0138 19.2474 48.946 19.112C48.4819 19.0529 47.5659 19.1584 47.2397 19.2663C46.8342 19.4005 47.2311 19.2554 46.9336 19.4389C46.5042 19.7042 46.2762 19.6566 46.2036 20.0951C47.1049 19.7207 46.847 19.3267 48.4819 19.3267C49.6046 19.3267 49.6619 19.5719 50.4029 20.3299C51.3871 21.3367 51.3822 23.0961 50.6486 24.2797C50.3809 24.7115 50.4279 24.6151 50.2266 24.6737C50.1492 24.7883 49.7735 25.0121 49.6436 25.0371C49.5418 25.3451 49.704 25.1079 49.4345 25.2677C49.2863 25.3555 48.8935 25.3811 48.6813 25.3774C47.3958 25.3555 47.7507 25.4305 46.6774 24.9871C45.8359 24.6401 45.2773 23.9827 45.2401 22.9155C45.1779 21.1342 45.4108 21.6099 45.5401 20.8342C45.3651 20.8543 45.4218 20.7769 45.3138 20.8671C45.2876 21.2544 45.1699 21.1867 45.0833 21.6715C44.9626 22.346 45.0522 23.4924 45.3553 24.1834C45.6834 24.9292 46.3262 25.0987 46.5085 25.2213L46.5829 25.2798C46.5927 25.2872 46.6073 25.3012 46.6171 25.3085C46.7128 25.3768 46.7927 25.4055 46.9146 25.4268C47.1933 25.4768 47.4696 25.5177 47.7538 25.5329C48.5923 25.5787 49.1253 25.8647 50.0675 25.2823L50.4962 24.9908C50.5102 24.9786 50.5974 24.9109 50.6053 24.9024L50.9688 24.2938C51.0627 24.0535 51.1834 23.8528 51.2481 23.6376C51.5524 22.6167 51.3707 22.9424 51.4493 22.4612C51.4743 22.3094 51.5158 22.2716 51.5634 22.102L51.678 22.4204C51.8378 23.3851 51.5506 24.2883 50.8517 24.9536C50.8419 24.9627 50.8279 24.9762 50.8188 24.9853L50.695 25.1201C50.6035 25.2347 50.7047 25.1164 50.6126 25.2359C50.6035 25.2475 50.5925 25.264 50.5834 25.2756L50.2388 25.5939C49.9113 25.8817 49.5564 26.1531 49.1454 26.347C48.821 26.5001 47.3513 27.0099 47.0342 27.0301C46.5951 27.0587 46.0158 27.1362 45.6535 27.0008C45.4474 26.9014 45.0132 26.1763 44.7461 25.9311L44.1448 25.5372C43.932 25.4128 44.1241 25.4451 43.8033 25.4164C43.8905 25.6116 43.782 25.4732 43.9667 25.6525L44.3406 25.9366C44.3521 25.9452 44.368 25.9568 44.379 25.9659C44.39 25.9744 44.4058 25.986 44.4168 25.9952C44.4278 26.0037 44.4436 26.0159 44.454 26.0244L44.9309 26.4593C45.1974 26.7422 45.2754 27.0386 45.537 27.2423C45.7785 27.4301 46.8159 27.3362 47.1555 27.2709L49.3503 26.4995C49.6357 26.3818 49.7973 26.1629 50.1053 26.1208C50.1937 25.9 51.253 25.1884 51.5213 24.5663C52.0494 23.343 51.9591 23.3071 51.8049 22.1795C51.7018 21.4239 51.5652 20.3555 51.2554 19.8115C51.0761 19.4975 50.8627 19.2596 50.5754 19.0352L49.4278 18.3278C49.2783 18.2449 49.3241 18.29 49.1753 18.2321C49.1613 18.2266 49.143 18.2211 49.1295 18.215L49.0076 18.1497C48.9954 18.143 48.9801 18.1314 48.9679 18.1241C48.5264 17.879 48.0928 17.718 47.4909 17.7113C46.206 17.6966 44.7656 17.671 43.6722 18.3004L43.4344 18.4498C43.313 18.5169 43.3642 18.4876 43.2118 18.5419C42.8251 18.6797 42.1684 19.0895 41.822 19.3487C41.5146 19.5786 41.2225 19.7597 41.0487 20.0756C40.9353 20.4762 41.2957 20.861 41.6079 20.9989H41.6097Z" fill="#C7C7C9"/>
<path fill-rule="evenodd" clip-rule="evenodd" d="M32.7405 45.6317C32.3825 46.2311 27.7027 44.609 26.5239 43.9461C25.933 43.6137 24.9987 43.2137 24.9963 42.7838C25.4945 42.5264 26.852 42.8295 27.363 42.9728C27.9534 43.1387 28.3107 43.3168 28.8211 43.5668C29.0321 43.6705 29.0163 43.7028 29.248 43.8004C29.5974 43.9473 29.9554 44.0028 30.267 44.1705C30.45 44.2693 30.4689 44.3364 30.6586 44.4352C30.8177 44.5181 30.9464 44.5358 31.1178 44.6383C31.7672 45.0273 33.0094 45.1828 32.7411 45.6317H32.7405ZM41.0073 46.2269C40.2823 46.2214 39.6718 46.2805 38.9784 46.2866L34.0937 46.358C33.6681 46.3439 33.6193 46.2598 33.1875 46.247C33.2021 45.3457 33.3692 45.2749 32.3319 44.8651L30.8122 44.0858C30.6262 43.9833 30.4823 43.8802 30.303 43.8046L29.1992 43.3893C29.0669 43.3326 29.0321 43.3174 28.9285 43.2625C28.8059 43.1972 28.9285 43.2722 28.801 43.1899L28.2485 42.8173C27.9265 42.5575 28.1424 42.6697 27.7015 42.6069C27.4722 42.5746 27.2502 42.5703 26.9721 42.5343C26.6605 42.4941 25.4921 42.1611 24.9457 42.466C24.6883 42.5618 24.9231 42.4221 24.7389 42.7173C24.5798 42.9722 24.6225 43.0308 24.3029 42.8002L23.9199 42.5301C23.59 42.3038 23.5693 42.374 23.44 42.0282L23.2363 41.5958C23.2632 41.8733 23.2577 42.0782 23.5388 42.3795C23.6919 42.5435 23.8815 42.613 24.3151 43.0576C24.703 43.4546 25.3195 43.7595 25.5982 43.9479C26.1989 44.3529 27.2466 44.9676 27.9082 45.1706C28.2778 45.2841 29.5316 45.7927 30.0079 45.9006L31.1275 46.175C31.5038 46.3049 32.5136 46.3842 32.9783 46.4226C33.9126 46.5007 34.7206 46.5257 35.6799 46.5501C36.5751 46.5732 37.535 46.5342 38.4515 46.5245C38.6693 46.522 40.7408 46.3769 41.0067 46.2256L41.0073 46.2269Z" fill="#361718"/>
<path fill-rule="evenodd" clip-rule="evenodd" d="M26.3818 13.2449C26.308 13.5809 25.5921 13.2174 25.1475 13.4711C24.5566 13.5218 22.8326 13.9529 22.1691 14.2121C21.9325 14.3042 21.9727 14.342 21.7197 14.4121C21.4928 14.4749 21.3977 14.4621 21.183 14.5487C20.8732 14.6737 20.6397 14.8085 20.3079 14.9256C19.4682 15.2226 19.0041 15.6751 18.318 16.1129C18.0552 16.2806 17.1136 17.2911 16.7605 17.6521L15.597 19.1249C15.1177 19.7951 15.0353 20.0866 14.717 20.7409C14.5969 20.9873 14.5005 21.4379 14.4005 21.6837C14.2523 22.0508 14.2151 22.2746 14.1005 22.6899C14.3017 22.5771 14.2438 22.6667 14.2206 22.3179C14.3011 22.2405 14.2121 22.2844 14.3615 22.2679C14.3188 22.5039 14.3475 22.6942 14.2657 22.8985C14.1462 23.1973 14.1425 23.0802 14.1096 23.5266C14.048 23.687 14.081 23.4985 13.9956 23.8041C13.9657 23.9108 13.9334 24.0925 13.9133 24.2499C13.8712 24.584 13.8852 24.9286 13.8773 25.2671C13.862 25.8458 13.8687 26.4257 13.8803 27.0045C13.887 27.3508 14.156 28.9913 14.3011 29.1821C14.6676 29.6651 14.7109 29.7975 14.1682 30.2335C13.9517 30.4073 13.9761 30.5104 13.7023 30.6915C13.2394 30.9982 13.2016 31.183 12.8686 31.5782C12.6985 31.78 12.6088 31.7751 12.4533 32.0136C11.3361 33.7345 10.6226 35.8976 10.5946 37.9564C10.5793 39.0815 10.7793 40.1219 11.0446 41.0067C11.3977 42.1849 11.0721 41.5361 11.6453 42.9679C11.7563 43.2448 11.8026 43.3009 11.9191 43.5576C12.1008 43.9571 12.1179 43.7924 12.2173 44.1095C12.396 44.6767 12.8497 45.3938 13.2931 45.6926C13.4236 45.972 13.6626 46.1122 13.8718 46.3159L14.0645 46.4842C14.3462 47.0959 16.3209 48.3283 16.6361 48.4338C16.8996 48.5222 16.8234 48.4168 17.027 48.5631L17.6149 48.9625C17.9814 49.279 18.4504 49.5266 18.9541 49.6675C19.1169 49.8181 18.948 49.6986 19.1566 49.8017L19.8566 50.0889C20.0274 50.1773 20.1451 50.2755 20.2713 50.3292C20.4482 50.4042 20.6378 50.3993 20.8037 50.4633C21.0373 50.553 20.8897 50.5804 21.266 50.6701C21.4202 50.7073 21.6569 50.7274 21.8416 50.7756C23.0613 51.0915 23.7595 51.3647 25.114 51.4641C27.4082 51.6324 25.8958 51.5311 26.8154 51.722L29.756 52.0221C31.3172 52.1928 33.0478 51.9403 34.5803 51.6385C34.9578 51.5641 35.2987 51.4866 35.661 51.3915L36.6483 51.0878C36.5056 50.7347 36.5233 50.8115 35.6122 50.7896C35.1487 50.7786 35.0658 50.6066 34.6291 50.5591C33.1253 50.3944 33.815 50.4664 32.4453 50.2084C31.9489 50.1151 32.1349 49.9669 31.4818 49.8956C30.7598 49.8163 31.0848 49.8175 30.5701 49.5919C29.8023 49.2547 29.9188 48.8912 28.8193 48.868C28.8053 48.8814 28.7906 48.9034 28.7809 48.9132C28.7717 48.9223 28.754 48.9443 28.7431 48.9546C28.6906 49.0022 28.6412 49.0601 28.5125 49.0485C28.4058 49.0388 28.2686 48.9741 28.1284 48.9351C28.168 49.1894 28.1899 49.3589 28.3131 49.4675L28.2064 49.7078C27.835 50.5444 28.504 50.4719 28.0448 50.8988L27.9442 50.9884C27.9302 51.0012 27.8924 51.0366 27.8771 51.0506C27.8771 51.0506 27.7936 51.128 27.7509 51.1689L27.6466 51.2695C27.7753 51.272 28.0381 51.3037 28.1906 51.3214L27.302 51.2372C27.0935 50.6878 27.4124 51.1549 26.7245 50.9256L26.111 50.6201C25.2878 50.309 24.6834 50.5066 23.9748 50.1938L23.5973 50.0413C23.3619 49.9419 23.2546 49.8797 22.9967 49.7828L20.8549 49.2205C19.7572 49.0388 20.2695 49.0644 19.5548 48.668L19.4346 48.5912C19.2066 48.4637 19.0023 48.5204 18.945 48.274L18.9474 48.1807C18.9352 47.7886 18.5419 47.8844 18.2723 47.6459C17.9967 47.4014 17.668 47.0788 17.1917 46.9221C16.8618 46.8208 16.4983 46.3244 16.3007 46.122L14.5145 44.473C14.392 44.2937 14.4292 44.2547 14.1913 44.1797C14.1175 43.693 13.3675 42.6106 13.2278 40.7963L12.9381 38.9046C12.6594 36.4202 13.1918 35.4012 13.9974 33.4912C14.1395 33.154 14.2066 33.1216 14.3444 32.7777L15.1402 31.3946C15.2823 31.1897 15.5378 30.9708 15.5116 30.6976C15.7586 30.6476 15.6147 30.7214 15.8745 30.6079C15.7214 30.7397 15.8135 30.6476 15.7903 30.7976L15.783 30.883C15.7812 30.8952 15.7793 30.9153 15.7769 30.9275C15.7488 31.086 15.7745 30.8744 15.7275 31.1159C15.8068 30.8915 15.8976 30.9104 16.0629 30.7421C16.2129 30.5896 16.2721 30.4634 16.4264 30.3152C16.7526 30.0024 16.916 29.8389 17.3576 29.6145C17.5643 29.3431 17.6253 29.8091 17.6326 29.087C17.374 28.9968 17.2887 28.9748 16.9417 28.9553C16.2019 27.7082 16.6093 28.429 16.2001 27.0758L16.0727 26.5422C15.836 25.5543 15.9373 23.5729 16.1855 22.7375C16.2465 22.532 16.2294 22.3173 16.3001 22.1191C16.3745 21.9112 16.4221 21.9539 16.516 21.688C16.9728 20.3915 16.9209 20.8928 17.2039 20.2713C17.2624 20.1439 17.3252 19.9067 17.385 19.789L18.2888 18.5839C18.6284 18.279 19.792 17.2374 20.2512 17.1508C20.8 17.0478 20.8507 16.9136 21.2172 16.7051C21.4678 16.5624 21.5629 16.6666 21.7459 16.4959C21.899 16.3532 21.7904 16.2684 22.0435 16.1452C22.1972 16.0702 22.7369 16.1074 23.5626 15.483C23.6699 15.4756 23.8303 15.4744 23.9309 15.4555C24.3047 15.386 23.9675 15.4232 24.2816 15.3403C24.5706 15.2634 24.8591 15.2543 25.189 15.2585L25.8842 15.1469C26.4093 15.1152 26.7245 14.8987 27.7637 14.8378C28.4711 14.7963 28.898 14.6109 29.6785 14.5963C30.3353 14.5841 31.0519 14.4767 31.7904 14.5255C32.4661 14.57 33.0314 14.967 33.5571 14.6536C33.504 14.4341 33.2168 14.2621 33.0228 14.1566C32.6783 13.9694 32.5911 13.9791 32.1612 13.8669C31.5349 13.7035 32.0496 13.6657 30.4567 13.34C29.1584 13.0747 29.6255 13.237 28.4205 13.1998C28.0338 13.1882 27.8003 13.1168 27.3636 13.1266C26.8343 13.1376 26.9294 13.3315 26.383 13.2437L26.3818 13.2449Z" fill="#75B04C"/>
<path fill-rule="evenodd" clip-rule="evenodd" d="M33.9655 42.5752C33.9893 42.6838 33.8314 42.7002 34.4424 42.7862C35.4578 42.9289 36.5165 43.1668 37.594 43.1454C38.0459 43.1363 40.2718 42.8759 40.7084 42.6551C40.8109 42.6033 40.7743 42.6002 40.9212 42.5429C41.0938 42.4758 41.0524 42.5295 41.2164 42.4362C41.4463 42.3057 41.7402 42.0105 42.0159 41.8581C42.6727 41.4934 42.3507 41.4196 42.7404 41.1275C43.4673 41.3031 43.3563 43.2656 43.08 43.9071C42.2793 45.7628 40.8267 45.3127 39.9742 45.5506C39.282 45.7439 37.2239 45.7524 36.761 45.5134C35.9359 45.0865 36.156 45.3353 35.2572 44.6462C34.8809 44.3578 34.8407 44.4047 34.5937 44.1339C34.1595 43.6589 33.2844 43.0753 32.7288 42.6929L32.5678 42.5667C33.0685 42.3593 33.4271 42.7191 33.9655 42.5758V42.5752ZM33.9655 42.5752C33.954 42.5618 33.9308 42.5307 33.9241 42.5429C33.9161 42.5575 33.893 42.5228 33.8436 42.4758C33.6454 42.2874 33.8771 42.6679 33.6978 42.3142C32.2086 42.0355 32.3952 41.9605 31.3543 41.63C30.878 41.4788 30.6603 41.4275 30.1547 41.3098L29.204 41.0616C28.8296 41.0598 29.0125 41.0464 28.9473 41.1921C29.0589 41.4397 29.0357 41.1708 29.6419 41.5538C29.7547 41.6245 30.5676 42.0081 30.7304 42.2166C31.1286 42.2459 31.2079 42.3673 31.8409 42.5807C32.9856 42.9655 32.2592 42.7204 32.7727 43.0411C34.2296 43.9516 34.876 44.8926 36.0762 45.4262C37.2159 45.9329 36.9561 45.8482 38.4478 45.9055C39.0918 45.9305 42.0043 45.7945 42.6593 45.1383C42.8154 44.9816 42.9014 44.9475 42.9721 44.7456C43.2191 44.0364 43.5606 43.9101 43.6319 42.5746C43.6947 41.4056 43.1916 41.158 42.8715 40.5841L42.4355 40.5469C42.1287 41.5208 42.6422 41.1677 41.2219 42.1044C40.9786 42.2648 40.5383 42.3947 40.245 42.524C39.6906 42.7673 39.6839 42.663 39.0558 42.7594C37.4934 42.9984 36.9165 43.035 35.2315 42.7283C34.8425 42.6576 34.3339 42.4722 33.9643 42.5758L33.9655 42.5752Z" fill="#735765"/>
<path fill-rule="evenodd" clip-rule="evenodd" d="M38.9299 14.4579C39.0238 14.4316 39.1037 14.4085 39.2104 14.3627C39.3263 14.3133 39.2708 14.3298 39.3489 14.2975C39.6404 14.1792 39.8764 14.195 40.0044 13.9346C40.5838 13.8736 40.7704 13.7145 41.2521 13.6181C41.7821 13.5126 42.559 13.5767 41.9791 12.9217C41.6522 12.5528 41.679 12.6741 41.2899 12.4223C39.8483 11.491 37.7182 11.491 36.0137 11.8374C35.5868 11.924 35.2996 12.2259 34.888 12.2436C34.7947 12.396 34.8928 12.271 34.78 12.3777C34.7666 12.3905 34.6782 12.4613 34.6611 12.4717C34.5538 12.5387 34.4867 12.5485 34.3842 12.5832C34.1611 12.6259 34.2794 12.615 34.0641 12.7217C33.7702 12.8668 33.9854 12.6833 33.8006 12.9138C33.3103 13.526 33.9641 13.7999 34.2159 14.0151L34.5501 14.2761C34.5605 14.2847 34.5751 14.2975 34.5855 14.3066C35.0935 14.7573 34.6873 14.8475 35.7192 15.3543C35.9003 15.4427 36.0966 15.5952 36.2698 15.7233C36.5308 15.9166 36.6351 15.9263 37.0657 15.9141C37.4419 15.5129 37.5804 15.2317 37.878 15.089C38.0701 14.997 38.2091 14.9104 38.3646 14.775L38.4335 14.7122C38.4433 14.703 38.4573 14.6896 38.4677 14.6805C38.5524 14.6036 38.4305 14.6914 38.5707 14.5871C38.7531 14.4512 38.6482 14.4816 38.9299 14.4566V14.4579Z" fill="#017648"/>
<path fill-rule="evenodd" clip-rule="evenodd" d="M33.7055 24.2986C33.7036 23.2869 34.0024 22.599 34.4812 22.0434C35.1861 21.2251 35.76 21.3098 36.8034 21.3214C37.4864 21.3287 38.5225 21.7971 38.9549 22.2112C39.1665 22.4136 39.35 22.9015 39.5135 23.1716C39.6665 23.4241 39.8702 24.0254 39.8611 24.3626C39.8257 25.6359 39.6178 25.761 38.7317 26.6873C38.6689 26.7532 38.5926 26.8184 38.5219 26.8782C37.4468 27.7825 34.9751 27.3111 34.4836 26.555C34.0836 25.9403 33.7067 25.2621 33.7049 24.2986H33.7055ZM33.5146 25.1566C33.5902 25.517 34.1939 26.7294 34.3214 26.8404C34.4537 26.955 34.6226 27.0855 34.78 27.1806C35.6618 27.7149 37.595 27.9692 38.6701 27.091C39.7025 26.2476 40.38 25.5866 39.958 23.6095C39.6659 22.2374 38.9665 21.8245 38.0743 21.311C37.3138 20.8732 35.3355 20.9433 34.719 21.4233C34.0171 21.9703 33.9903 22.1404 33.8061 22.6228C33.7573 22.7521 33.7414 22.7435 33.6756 22.8899C33.5926 23.0728 33.5408 23.3223 33.5109 23.5198C33.4573 23.8827 33.4408 24.8054 33.5146 25.156V25.1566Z" fill="#878788"/>
<path fill-rule="evenodd" clip-rule="evenodd" d="M44.4965 17.152C44.9563 17.2112 45.7875 16.9898 46.3022 16.9514C46.859 16.9099 47.6487 16.9209 48.1573 17.0179C48.9062 17.1606 49.5837 17.4545 50.2039 17.8905C50.3972 18.0265 50.4722 18.1546 50.8174 18.1223C50.8802 17.6124 50.7015 17.3789 50.4594 17.102C50.3186 16.941 50.2618 16.8867 50.1118 16.7306C50.0082 16.6227 49.8978 16.4739 49.799 16.3867C49.3093 15.9543 48.1726 15.9744 47.3609 15.9915C43.7013 16.0659 43.8434 16.702 42.478 16.8471C42.2402 16.9599 42.0664 17.0496 41.7919 17.1551C41.5407 17.2514 41.2175 17.4832 41.123 17.51C41.0803 17.7759 41.0498 17.835 40.901 18.0332L40.779 18.1778C40.7699 18.1875 40.7558 18.2015 40.7467 18.2113C40.3966 18.5693 40.2131 18.7388 40.2881 19.2962C40.8461 19.3797 40.9888 19.0925 41.3681 18.8181C42.5743 17.9472 42.5396 17.935 43.9788 17.4142C44.0629 17.3838 44.2014 17.3435 44.2752 17.313C44.5404 17.2051 44.4733 17.1959 44.4965 17.1526C44.4965 17.1526 50.9747 10.2774 44.4965 17.1526V17.152Z" fill="#70924A"/>
<path fill-rule="evenodd" clip-rule="evenodd" d="M44.4571 42.3794C44.7492 42.2782 45.1553 42.2538 45.8365 42.0568C46.4427 41.8818 46.1682 41.8904 47.0775 41.5714C47.641 41.3738 47.7782 41.2141 48.1935 40.9787C48.4264 40.8463 48.5466 40.8012 48.7503 40.6646C49.0369 40.4725 48.9509 40.3573 49.2747 40.3225C49.4278 40.4725 49.4601 40.5579 49.4723 40.7957C49.504 41.4226 49.3296 41.5062 49.2418 41.8745C49.1924 42.0825 49.1942 42.1751 49.1003 42.341C48.7661 42.9307 47.4373 43.854 46.8799 44.0095L45.4425 44.4894C45.0651 44.6791 44.3528 44.8803 43.9503 44.8596C43.9296 44.4919 44.0174 44.5266 44.1021 44.2705C44.4894 43.0984 44.29 42.9021 44.4577 42.3788L44.4571 42.3794ZM49.482 39.7316C48.8728 39.7474 49.0277 40.042 48.6551 40.3725C48.5307 40.4823 48.3801 40.5524 48.2288 40.6713C47.9471 40.8933 47.0982 41.2226 46.7256 41.3592C46.2 41.5525 46.1457 41.8288 45.1937 41.9757C45.0651 41.9959 44.6748 42.0282 44.5437 42.069C43.9369 42.2569 44.1735 43.5552 43.8094 44.2443C43.8064 44.2498 43.1581 45.0901 43.807 45.1975C44.0021 45.2298 44.6504 45.0535 45.023 44.9791C45.3718 44.9096 45.2504 44.8675 45.5236 44.7712C45.7218 44.7011 45.8871 44.6791 46.092 44.6096L47.5916 43.9376C48.3045 43.5351 49.1662 42.9759 49.5003 42.2203C49.7784 41.5928 49.9077 40.4048 49.482 39.7316Z" fill="#914D58"/>
<path fill-rule="evenodd" clip-rule="evenodd" d="M24.9967 42.7832C24.9991 43.2137 25.9334 43.6132 26.5243 43.9455C27.7031 44.609 32.3823 46.2311 32.7409 45.6311C33.0092 45.1822 31.7676 45.0267 31.1176 44.6377C30.9462 44.5346 30.8175 44.5175 30.6584 44.4346C30.4693 44.3358 30.4504 44.2687 30.2668 44.1699C29.9552 44.0022 29.5972 43.9467 29.2478 43.7998C29.0161 43.7022 29.0319 43.6699 28.8209 43.5662C28.3105 43.3156 27.9538 43.1375 27.3628 42.9722C26.8518 42.8289 25.4943 42.5252 24.9961 42.7832H24.9967Z" fill="#914D58"/>
<path fill-rule="evenodd" clip-rule="evenodd" d="M38.32 15.8165C38.0572 15.9135 38.2761 15.8019 38.0791 15.9336C38.0505 15.9525 37.9114 16.0897 37.9041 16.0983C37.7724 16.2684 37.7864 16.2745 37.7907 16.5806C38.1389 16.5788 38.0383 16.5203 38.6567 16.849C38.8811 16.9685 39.0634 17.5649 40.0678 17.2161L40.9405 16.755C41.1655 16.5495 40.9588 16.5081 41.296 16.4379C41.3039 16.2477 41.4826 16.3147 41.7046 16.2995C42.6516 16.2654 42.3175 16.1599 43.2743 15.9202C44.3433 15.6525 43.5755 15.7452 44.9525 15.5451C45.6002 15.4512 46.1655 15.3939 46.8241 15.3445C47.2254 15.3146 48.4944 15.3695 48.753 15.2622C49.0646 14.9512 48.2499 14.5993 48.0578 14.5023L46.7771 14.1273C45.813 13.887 45.0141 13.7913 43.8365 13.9114C42.6553 14.0316 42.1473 13.859 40.9905 14.2804C40.2886 14.5359 40.8325 14.2279 39.8367 14.7188C39.6251 14.8237 39.4415 14.839 39.2579 14.9408C39.0384 15.0634 39.0091 15.1725 38.7634 15.2695C38.5176 15.3366 38.5572 15.3171 38.4255 15.5128C38.3273 15.6592 38.2999 15.7214 38.32 15.8153V15.8165ZM40.2843 15.6891L40.2812 15.6689C40.2812 15.6647 40.2934 15.6494 40.2995 15.6378C40.2898 15.6604 40.2855 15.6756 40.2843 15.6891Z" fill="#027436"/>
<path fill-rule="evenodd" clip-rule="evenodd" d="M46.2044 20.0957C46.1727 20.2652 46.0044 20.3793 45.8921 20.5238C45.7994 20.6433 45.7147 20.8232 45.5409 20.8348C45.411 21.6105 45.1786 21.1343 45.2408 22.9162C45.278 23.9834 45.8366 24.6408 46.6782 24.9878C47.7515 25.4305 47.3966 25.3561 48.6821 25.378C48.8943 25.3817 49.2871 25.3561 49.4352 25.2683C49.7048 25.1091 49.5426 25.3463 49.6444 25.0378C49.0931 25.1207 49.1065 25.2232 48.4644 25.1561C48.0119 25.1085 47.6442 25.2103 47.3204 25.0012C47.1661 24.9018 47.0533 24.864 46.8758 24.8036C46.5282 24.6859 46.2428 24.5633 46.0361 24.2901C45.9897 24.2291 45.9501 24.181 45.8952 24.1163C45.4464 23.5827 45.4244 22.049 45.636 21.541C45.9043 20.8958 45.8982 20.858 46.4678 20.3634C47.0655 19.8445 47.3905 19.3676 48.8803 19.5109C49.4462 19.5658 50.0128 20.1957 50.3732 20.6232C50.6763 20.983 50.6311 21.058 50.8055 21.5172C51.0787 22.2362 51.0117 22.9546 50.7324 23.7218C50.5732 24.159 50.3719 24.184 50.2268 24.6737C50.428 24.6152 50.3811 24.7115 50.6488 24.2797C51.3824 23.0961 51.3873 21.3367 50.403 20.3299C49.6621 19.5719 49.6054 19.3267 48.4821 19.3267C46.8471 19.3273 47.1051 19.7213 46.2038 20.0951L46.2044 20.0957Z" fill="#575758"/>
<path fill-rule="evenodd" clip-rule="evenodd" d="M52.2839 31.0854C52.2284 31.1677 52.1931 31.1829 52.1614 31.2634C52.1424 31.2744 52.1156 31.2702 52.1059 31.2994L49.6184 33.8784C49.4171 34.0473 49.3976 34.068 49.1494 34.204C48.4566 34.5827 48.7859 34.7419 47.9267 35.1383L46.9559 35.6298C46.6278 35.7683 46.7192 35.7896 46.5162 35.9116L46.2948 36.0201C46.171 36.0829 46.1552 36.1024 46.024 36.1372C45.7874 36.2 45.5069 36.2409 45.2496 36.2506L41.3747 37.4739C41.0222 37.5294 40.7984 37.5398 40.4795 37.6825L40.0825 37.7953C39.9782 37.902 40.0544 37.8709 39.8794 37.9472C39.7867 37.988 39.6989 37.9905 39.5769 38.0033C39.3415 38.0283 39.2976 38.0368 39.0799 38.0807C37.9554 38.31 34.233 38.3612 33.0414 38.3204C32.5901 38.3051 31.1906 38.1179 30.785 38.021C30.5624 37.9679 30.5076 37.9252 30.327 37.8844C30.1325 37.8404 29.9721 37.8283 29.8032 37.8026C29.3245 37.7301 29.3135 37.6282 28.7506 37.6038C27.4352 37.5459 24.4922 36.7062 23.1122 37.0385C22.814 37.1105 22.1919 37.1928 21.9889 37.4117C21.984 37.4166 21.8712 37.5557 21.8699 37.5575C21.4742 38.088 21.4242 37.8319 21.2748 38.3582C21.1668 38.7387 21.2211 38.6863 20.9918 38.9741L20.8095 39.2705C20.4368 40.2779 21.0595 41.3976 21.4876 42.2422C21.6095 42.4837 21.6175 42.4819 21.7827 42.5563C21.7968 43.1368 22.8493 43.9522 23.0097 44.0497L23.2036 44.1723C23.4884 44.415 23.4543 44.4699 23.5708 44.6455C23.8775 45.109 24.7148 45.4932 25.1807 45.8201C25.3661 45.9499 25.6814 46.1183 25.8826 46.2366C26.3211 46.4951 26.293 46.4311 26.6028 46.5769L27.3706 46.9299C28.4256 47.5849 28.8683 47.594 29.7697 47.8977C30.2691 48.0654 32.8944 48.471 33.5158 48.5204C33.8811 48.549 34.2556 48.5106 34.616 48.5716C34.9313 48.6247 35.2356 48.6844 35.5649 48.718C36.5912 48.8235 38.8214 48.8729 39.7971 48.6704C40.4246 48.5405 41.0509 48.5112 41.7107 48.3935C42.0376 48.335 42.3474 48.249 42.6206 48.2008C42.9737 48.1386 43.342 48.1264 43.6536 48.0728L45.4801 47.6581C45.8405 47.5544 45.9204 47.4703 46.3424 47.3995C46.5778 47.3599 46.9998 47.28 47.2498 47.1964C47.4943 47.1141 48.3957 46.4665 48.5085 46.3494L48.8866 46.2732C48.986 46.228 49.0524 46.1573 49.1994 46.0701C49.3019 46.0091 49.3208 46.0073 49.4092 45.9445C50.0172 45.5133 50.8222 45.1328 51.135 44.6949C51.3271 44.4266 51.4918 44.2095 51.7345 44.0546C51.8083 43.6863 51.9906 43.36 52.1424 43.0716C53.5865 40.3292 51.0002 37.6233 50.5227 37.5526C50.1965 37.5044 50.1989 37.6008 50.0111 37.7026C49.7385 37.8508 49.7781 37.7801 49.5623 37.9588C49.5159 38.5436 49.7275 38.1606 50.1526 39.0552C50.3325 39.4327 50.3282 39.1973 50.427 39.8425C50.5349 40.5475 50.5441 41.8702 50.3111 42.4306C50.1446 42.8301 49.5415 43.7881 49.1964 44.0802C49.0439 44.2095 48.9543 44.2125 48.7829 44.3272C48.5652 44.4736 48.6012 44.476 48.3261 44.6022C48.0548 44.7266 48.1182 44.7376 47.9035 44.8498C47.5706 45.0248 45.7722 45.7115 45.341 45.7835C44.9038 45.8573 44.6324 45.9743 44.2275 46.0433C43.7427 46.125 43.4512 46.0945 43.0218 46.2256C41.8546 46.5817 39.3592 46.7616 37.9261 46.7281C35.646 46.6744 35.4435 46.9135 32.6322 46.6086C31.7973 46.5183 30.9991 46.4152 30.274 46.1884L26.9529 45.0224C26.1455 44.6376 26.2308 44.6358 25.4033 44.1406C24.8014 43.7802 24.0367 43.0289 23.8623 42.9252C23.5287 42.7276 23.2817 42.5941 23.139 42.2709C22.9121 41.7555 22.6615 40.5078 23.0414 39.9553L23.386 39.5132C23.3939 39.5028 23.4037 39.4864 23.4116 39.4766L23.5817 39.3278C23.5921 39.3193 23.6086 39.3071 23.6189 39.2985L23.9812 39.0778C24.2782 38.9144 24.2745 38.9137 24.7258 38.9131C25.074 38.9125 26.7181 38.8808 27.0132 38.9997L27.2846 39.1199C28.0298 39.3858 28.8616 39.3675 29.5751 39.5937C30.5832 39.9139 32.0455 39.9913 33.2402 40.1084C33.8641 40.17 33.3829 40.2054 34.4946 40.2322C35.7625 40.2627 38.814 40.3572 40.0087 39.8504C40.1953 39.7712 39.9331 39.8273 40.2459 39.776C40.4728 39.7388 40.6643 39.7297 40.8972 39.7041C41.9455 39.5882 43.4146 39.2681 44.4415 38.9973C44.8245 38.8967 45.0007 38.7027 45.427 38.6125C45.9179 38.5082 46.071 38.3869 46.4643 38.2606L48.4268 37.4435C49.9172 36.5885 49.4202 36.8678 50.5087 36.028C51.7131 35.0987 52.1107 35.2688 53.0474 33.679C53.2139 33.396 53.3365 33.0795 53.5213 32.7661C53.8542 32.202 54.0945 31.0976 53.7475 30.5201C53.5463 30.1853 53.4133 29.8797 52.906 29.9078C52.7407 29.9682 52.3254 30.8579 52.2858 31.0866L52.2839 31.0854Z" fill="#AFCE4C"/>
<path fill-rule="evenodd" clip-rule="evenodd" d="M49.1845 27.3673C49.1735 27.3801 49.1546 27.3819 49.1485 27.4045C49.1406 27.4332 49.0887 27.463 49.0753 27.4734C48.7588 27.7173 47.5263 28.0137 47.0897 28.0406C46.6988 28.0643 46.5024 27.9918 46.3652 28.3241C46.6195 29.1413 48.1282 28.3894 48.5631 28.215C48.9125 28.0753 49.2863 27.9174 49.604 27.7314C50.0059 27.4954 50.3108 27.4801 50.337 26.9307C49.9291 26.9819 49.5864 27.4185 49.1839 27.3667L49.1845 27.3673Z" fill="#91B268"/>
<path fill-rule="evenodd" clip-rule="evenodd" d="M35.9316 24.8151C35.4742 25.5073 36.1054 26.0653 36.6719 25.6774C36.9622 25.4786 36.8975 25.2457 36.7304 25.0286C36.5268 24.7639 36.3426 24.7639 35.9316 24.8157V24.8151Z" fill="#474748"/>
<path fill-rule="evenodd" clip-rule="evenodd" d="M38.0116 22.6984C38.4184 22.6496 38.3281 23.057 38.2934 23.4265C38.1909 23.5077 38.0525 23.6339 37.9689 23.7351C37.5317 23.7473 37.0133 23.6284 37.0267 23.1107C37.0322 22.8997 37.1737 22.7502 37.2951 22.6844C37.3951 22.6301 37.5463 22.5844 37.6622 22.5795C37.9787 22.5667 37.9933 22.6771 38.0122 22.6984H38.0116ZM38.4611 22.7027C38.0848 22.4148 37.8732 22.2179 37.3195 22.4911C37.0914 22.6033 36.9347 22.6478 36.8633 22.8283C36.7871 23.021 36.7987 23.3076 36.9078 23.4692C37.3981 24.1955 38.6654 24.1791 38.4605 22.7021L38.4611 22.7027Z" fill="#575758"/>
<path fill-rule="evenodd" clip-rule="evenodd" d="M49.8109 20.7897C49.8487 21.3489 49.6322 21.5727 49.0803 21.5172C48.9077 21.2739 48.6791 21.0354 49.0413 20.7671C49.3236 20.5579 49.5462 20.5933 49.8109 20.7897ZM48.6669 20.7823C48.626 21.3617 48.7339 21.7879 49.3407 21.7648C49.8682 21.7453 50.0518 21.2855 50.0408 20.7579C49.6218 20.4414 49.5279 20.1219 48.6669 20.7823Z" fill="#8E9091"/>
<path fill-rule="evenodd" clip-rule="evenodd" d="M49.8108 20.7897C49.5461 20.5933 49.3235 20.5579 49.0412 20.7671C48.679 21.0354 48.9076 21.2739 49.0802 21.5172C49.6321 21.5727 49.8486 21.3489 49.8108 20.7897Z" fill="#D7D8D8"/>
<path fill-rule="evenodd" clip-rule="evenodd" d="M38.0111 22.6984C38.1038 23.0082 38.3715 22.9265 37.9319 23.5119C37.5806 23.5229 37.2482 23.4687 37.2574 23.1113C37.2671 22.7283 37.6324 22.7558 38.0111 22.6984ZM38.0111 22.6984C37.9922 22.6771 37.9776 22.5667 37.6611 22.5795C37.5452 22.5844 37.3946 22.6301 37.294 22.6844C37.1726 22.7503 37.0311 22.8997 37.0256 23.1107C37.0122 23.6284 37.5306 23.7473 37.9678 23.7351C38.0514 23.6339 38.1892 23.5077 38.2923 23.4266C38.327 23.057 38.4173 22.6497 38.0105 22.6984H38.0111Z" fill="#979898"/>
<path fill-rule="evenodd" clip-rule="evenodd" d="M38.0117 22.6985C37.633 22.7552 37.2684 22.7278 37.258 23.1113C37.2488 23.4687 37.5812 23.5236 37.9325 23.512C38.3722 22.9266 38.1038 23.0083 38.0117 22.6985Z" fill="#E9E8E8"/>
<path fill-rule="evenodd" clip-rule="evenodd" d="M47.96 23.2473C47.9235 23.5266 47.868 23.6773 48.0643 23.8065C48.2308 23.9169 48.5235 23.8895 48.6144 23.6894C48.8638 23.1443 48.3668 23.015 47.96 23.2467V23.2473Z" fill="#575758"/>
<defs>
<linearGradient id="paint0_linear_431_490" x1="18.4546" y1="33.5589" x2="24.4169" y2="34.0907" gradientUnits="userSpaceOnUse">
<stop stop-color="#006E42"/>
<stop offset="1" stop-color="#50934B"/>
</linearGradient>
</defs>
</svg>
